<svg width="61" height="58" viewBox="0 0 61 58" fill="none" xmlns="http://www.w3.org/2000/svg">
<path d="M60.8291 22.0446V22.0908C60.7586 22.1814 60.7493 22.4194 60.8291 22.5068V22.8303C60.7103 24.6789 59.7531 26.6828 58.7736 28.1774C56.6569 31.1245 53.5472 33.5457 50.2849 35.1143C49.7476 35.4382 49.1226 35.6282 48.6155 35.9447C47.6754 35.9729 48.074 36.9883 48.0076 37.6039C47.8689 39.6554 47.9376 41.8159 47.6991 43.8129C47.5418 45.6296 47.3144 47.6534 46.7808 49.5533C46.6616 50.7558 46.0988 52.0923 45.413 53.1821C44.3147 54.9161 42.0323 54.9475 40.3819 55.3805C38.0281 55.5238 35.4339 55.5483 33.2643 54.0754C32.7251 53.6793 32.3939 53.1973 32.0477 52.6529C31.7661 52.1894 31.9322 51.0622 31.1026 51.3603C30.2354 51.1481 30.4521 52.3123 30.1166 52.8276C29.1042 55.118 27.4454 57.1991 24.951 57.7135C24.3798 57.8993 23.843 57.8207 23.2458 58H23.1066C23.0008 57.9288 22.7452 57.9205 22.6426 58H22.3642C21.0864 57.8239 19.8062 57.81 18.5094 57.218C17.2339 56.7619 16.0029 56.1274 15.1144 55.0538C14.1279 54.1249 13.7706 52.7014 13.4588 51.4342C12.7202 47.1704 12.7944 42.7596 12.9763 38.3738C13.0227 37.0595 12.4631 35.8052 12.574 34.4765C11.8576 34.0264 10.9259 33.786 10.1288 33.3535C6.23263 31.485 2.36063 28.4958 0.643394 24.5901C0.282867 23.7583 0.0675812 22.7915 -0.000164032 21.8135V21.3976C0.204922 20.2686 0.714844 18.8003 2.08826 19.0411C2.68124 18.859 3.17215 19.5851 3.71548 19.3216C5.06987 19.0605 5.52644 20.6716 5.74312 21.7313C5.77607 22.3607 6.47298 22.5895 6.97038 22.8659C8.71638 23.4972 10.3881 24.0138 12.11 24.5402C12.3309 23.8401 12.0771 23.1173 12.239 22.4042C12.2747 20.391 12.6877 18.1385 13.7024 16.2363C14.1734 14.8767 14.9492 13.7421 15.7709 12.6121C15.9495 11.9013 15.7426 11.2127 15.9143 10.4904C15.9245 8.9588 16.0066 7.5742 16.3783 6.14615C16.5926 5.48574 16.9081 4.579 17.7554 4.82163C19.1701 5.14698 20.0531 6.3592 21.0975 7.26964C21.42 8.10521 22.1633 7.21788 22.7238 7.08986C24.3928 6.28618 26.5313 5.85037 28.4889 5.59203C28.2467 5.06056 27.6096 4.69592 27.425 4.0637C27.6036 3.36539 28.4063 3.6302 28.8601 3.28127C28.5497 2.93004 28.1595 2.53351 27.8857 2.1259C27.3679 2.27656 26.4608 2.01128 26.4102 1.3749C26.1481 0.608191 26.781 0.1331 27.4217 0H27.4681C28.0393 0.147426 28.4272 0.633147 28.4889 1.20159C28.6708 1.69286 29.1765 2.02977 29.4596 2.49931C29.7923 2.9 30.3713 3.27203 30.3133 3.80443C30.1101 4.3701 29.3756 4.23516 28.9529 4.34422C29.2086 4.80961 29.4772 5.28794 29.9426 5.57678C32.0403 5.58325 34.1802 5.96776 36.1438 6.70212C36.6584 6.72245 37.2644 7.50349 37.6305 6.97941C37.8123 6.47982 38.1947 6.06666 38.4285 5.6022C39.1022 4.34746 40.5077 2.73825 42.0514 3.59092C43.9106 4.94548 44.085 7.46698 44.775 9.4741C45.187 11.7349 45.6366 13.6922 46.0445 15.9119C47.2819 18.566 47.7028 21.6948 47.6517 24.5402C47.7538 25.0865 47.591 25.6707 47.8373 26.1578C49.8766 25.4826 51.984 24.7269 53.904 23.7453C54.5699 23.5443 55.2923 23.0188 55.1721 22.2332C55.3081 21.4997 55.4872 20.7386 55.992 20.2769C56.6546 19.7574 57.3942 20.3379 58.0141 19.7491C58.6692 19.5106 59.4993 19.5795 60.051 20.093C60.5818 20.6813 60.6092 21.3394 60.8291 22.0446ZM31.5976 13.0327C30.0628 13.0304 28.5214 13.5646 27.4565 14.7773C26.3448 16.02 25.8474 17.791 26.2047 19.421C26.4427 21.057 27.5363 22.5146 28.9566 23.2887C31.7953 24.7621 35.3203 23.182 36.2524 20.1184C36.7196 18.5383 36.4603 16.7904 35.5522 15.379C34.6864 14.0314 33.1177 13.1884 31.5976 13.0327ZM26.8185 28.3299C26.5248 28.7056 26.8232 29.2325 26.9076 29.6276C28.0741 31.7031 30.9207 32.5844 33.0704 31.9226C33.9134 31.6283 34.7783 31.186 35.3453 30.4914C35.4933 30.1725 36.0237 29.8074 35.8664 29.3004C35.6288 28.8142 35.0562 29.2343 34.7027 29.2107C33.126 29.8624 31.3837 30.0126 29.5992 29.6734C29.068 29.287 28.9956 30.1785 28.4884 30.0856C27.9841 30.0898 27.4871 29.7935 27.3758 29.2999C27.5113 28.9464 27.1531 28.4205 26.8185 28.3299Z" fill="#DBDBDB"/>
<circle cx="32.8904" cy="17.3293" r="1.76829" fill="#D9D9D9"/>
<circle cx="29.7073" cy="18.3902" r="0.707317" fill="#D9D9D9"/>
</svg>
