<svg width="22" height="22" viewBox="0 0 22 22" fill="none" xmlns="http://www.w3.org/2000/svg">
<g id="Frame 36">
<circle id="Ellipse 13" cx="11" cy="11" r="11" transform="rotate(90 11 11)" fill="#202E49"/>
<circle id="Ellipse 12" cx="10.9621" cy="10.9625" r="9.46075" transform="rotate(90 10.9621 10.9625)" fill="#101521"/>
<g id="Group 20">
<line id="Line 2" x1="9.34798" y1="1.12628" x2="9.34798" y2="21.099" stroke="white" stroke-width="0.225256"/>
<line id="Line 3" x1="10.0238" y1="1.12628" x2="10.0238" y2="21.099" stroke="white" stroke-width="0.225256"/>
<line id="Line 4" x1="10.6995" y1="1.12628" x2="10.6995" y2="21.099" stroke="white" stroke-width="0.225256"/>
<line id="Line 5" x1="11.3753" y1="1.12628" x2="11.3753" y2="21.099" stroke="white" stroke-width="0.225256"/>
<line id="Line 6" x1="12.0511" y1="1.12628" x2="12.0511" y2="21.099" stroke="white" stroke-width="0.225256"/>
<line id="Line 7" x1="12.7269" y1="1.12628" x2="12.7269" y2="21.099" stroke="white" stroke-width="0.225256"/>
</g>
<g id="Group 22">
<path id="Line 2_2" d="M5.45898 7.84784L14.2066 16.5955" stroke="white" stroke-width="0.225256" stroke-linecap="round"/>
<path id="Line 3_2" d="M5.93652 7.37L14.6842 16.1176" stroke="white" stroke-width="0.225256" stroke-linecap="round"/>
<path id="Line 4_2" d="M6.41504 6.89215L15.1627 15.6398" stroke="white" stroke-width="0.225256" stroke-linecap="round"/>
<path id="Line 5_2" d="M6.89258 6.41431L15.6402 15.1619" stroke="white" stroke-width="0.225256" stroke-linecap="round"/>
<path id="Line 6_2" d="M7.37012 5.93646L16.1177 14.6841" stroke="white" stroke-width="0.225256" stroke-linecap="round"/>
<path id="Line 7_2" d="M7.84863 5.45862L16.5963 14.2062" stroke="white" stroke-width="0.225256" stroke-linecap="round"/>
</g>
<g id="Group 23">
<path id="Line 2_3" d="M14.2061 5.62408L5.45842 14.3717" stroke="white" stroke-width="0.225256" stroke-linecap="round"/>
<path id="Line 3_3" d="M14.6836 6.10193L5.93596 14.8496" stroke="white" stroke-width="0.225256" stroke-linecap="round"/>
<path id="Line 4_3" d="M15.1621 6.57977L6.41448 15.3274" stroke="white" stroke-width="0.225256" stroke-linecap="round"/>
<path id="Line 5_3" d="M15.6396 7.05762L6.89202 15.8052" stroke="white" stroke-width="0.225256" stroke-linecap="round"/>
<path id="Line 6_3" d="M16.1172 7.53546L7.36956 16.2831" stroke="white" stroke-width="0.225256" stroke-linecap="round"/>
<path id="Line 7_3" d="M16.5957 8.01331L7.84807 16.7609" stroke="white" stroke-width="0.225256" stroke-linecap="round"/>
</g>
<g id="Group 21">
<line id="Line 2_4" x1="20.8359" y1="9.27303" x2="0.863245" y2="9.27303" stroke="white" stroke-width="0.225256"/>
<line id="Line 3_4" x1="20.8359" y1="9.94881" x2="0.863245" y2="9.94881" stroke="white" stroke-width="0.225256"/>
<line id="Line 4_4" x1="20.8359" y1="10.6246" x2="0.863245" y2="10.6246" stroke="white" stroke-width="0.225256"/>
<line id="Line 5_4" x1="20.8359" y1="11.3003" x2="0.863245" y2="11.3003" stroke="white" stroke-width="0.225256"/>
<line id="Line 6_4" x1="20.8359" y1="11.9761" x2="0.863245" y2="11.9761" stroke="white" stroke-width="0.225256"/>
<line id="Line 7_4" x1="20.8359" y1="12.6519" x2="0.863245" y2="12.6519" stroke="white" stroke-width="0.225256"/>
</g>
<ellipse id="Ellipse 14" cx="11.0002" cy="10.9249" rx="4.54266" ry="4.46758" transform="rotate(90 11.0002 10.9249)" fill="#151D30"/>
<ellipse id="Ellipse 15" cx="10.9629" cy="10.9249" rx="4.01707" ry="3.97952" transform="rotate(90 10.9629 10.9249)" fill="#202E49"/>
<g id="Vector">
<path d="M17.0261 2.12241C17.2314 1.91716 17.5641 1.91716 17.7694 2.12241L19.787 4.13996C19.9922 4.34522 19.9922 4.67801 19.787 4.88327L19.4153 5.25492C19.21 5.46018 18.8772 5.46018 18.672 5.25492L16.6544 3.23738C16.4492 3.03212 16.4492 2.69933 16.6544 2.49407L17.0261 2.12241Z" fill="#41FDB9"/>
<path d="M5.34555 2.54716C5.55081 2.75242 5.55081 3.08521 5.34555 3.29047L3.32801 5.30802C3.12275 5.51328 2.78996 5.51328 2.5847 5.30802L2.21305 4.93637C2.00779 4.73111 2.00779 4.39832 2.21305 4.19306L4.23059 2.17551C4.43585 1.97025 4.76864 1.97025 4.9739 2.17551L5.34555 2.54716Z" fill="#41FDB9"/>
<path d="M19.7869 16.9886C19.9922 17.1938 19.9922 17.5266 19.7869 17.7319L17.7694 19.7494C17.5641 19.9547 17.2314 19.9547 17.0261 19.7494L16.6544 19.3778C16.4492 19.1725 16.4492 18.8397 16.6544 18.6344L18.672 16.6169C18.8772 16.4116 19.21 16.4116 19.4153 16.6169L19.7869 16.9886Z" fill="#41FDB9"/>
<path d="M2.53161 16.6169C2.73687 16.4116 3.06966 16.4116 3.27492 16.6169L5.29247 18.6344C5.49772 18.8397 5.49773 19.1725 5.29247 19.3778L4.92081 19.7494C4.71555 19.9547 4.38276 19.9547 4.17751 19.7494L2.15996 17.7319C1.9547 17.5266 1.9547 17.1938 2.15996 16.9886L2.53161 16.6169Z" fill="#41FDB9"/>
<path d="M9.01024 20.9488C9.01024 20.6585 9.24556 20.4232 9.53584 20.4232H12.3891C12.6794 20.4232 12.9147 20.6585 12.9147 20.9488V21.4744C12.9147 21.7647 12.6794 22 12.3891 22H9.53584C9.24556 22 9.01024 21.7647 9.01024 21.4744V20.9488Z" fill="#41FDB9"/>
<path d="M21.4744 9.01024C21.7647 9.01024 22 9.24556 22 9.53584V12.3891C22 12.6794 21.7647 12.9147 21.4744 12.9147H20.9488C20.6585 12.9147 20.4232 12.6794 20.4232 12.3891V9.53584C20.4232 9.24556 20.6585 9.01024 20.9488 9.01024H21.4744Z" fill="#41FDB9"/>
<path d="M1.05119 9.01024C1.34147 9.01024 1.57679 9.24556 1.57679 9.53584L1.57679 12.3891C1.57679 12.6794 1.34147 12.9147 1.05119 12.9147H0.525598C0.235318 12.9147 -1.26885e-08 12.6794 0 12.3891L1.24719e-07 9.53584C1.37408e-07 9.24556 0.235318 9.01024 0.525597 9.01024H1.05119Z" fill="#41FDB9"/>
<path d="M9.01024 0.525598C9.01024 0.235318 9.24556 0 9.53584 0H12.3891C12.6794 0 12.9147 0.235318 12.9147 0.525597V1.05119C12.9147 1.34147 12.6794 1.57679 12.3891 1.57679H9.53584C9.24556 1.57679 9.01024 1.34147 9.01024 1.05119V0.525598Z" fill="#41FDB9"/>
</g>
<path id="path830" d="M9.97137 9.72789C9.96851 8.97474 10.454 8.55705 11.3454 8.55392C11.9868 8.55165 12.1014 8.9682 12.1014 9.11957C12.1014 9.4095 11.6881 9.71707 11.6881 9.71707C11.6881 9.71707 11.7111 9.89775 12.0659 9.89633C12.4207 9.8949 12.7664 9.66244 12.7644 9.08059C12.7626 8.41223 12.0573 8.10665 11.36 8.10921C10.7767 8.1112 9.22992 8.19257 9.23537 9.71707C9.24052 11.0711 11.8148 11.1906 11.8168 12.0576C11.8203 12.9991 10.7564 13.2526 10.3964 13.2526C10.0364 13.2526 9.88998 12.9997 9.8894 12.8608C9.88682 12.0983 10.6512 11.886 10.6512 11.886C10.6512 11.8291 10.6065 11.5756 10.3104 11.5767C9.54777 11.5782 9.24396 12.2292 9.24626 12.8648C9.24826 13.4054 9.63318 13.7429 10.2144 13.7406C11.3259 13.7366 12.5792 13.1983 12.5746 12.0027C12.5706 10.8845 9.97452 10.5926 9.97137 9.72789Z" fill="#41FDB9"/>
</g>
</svg>
