<svg width="67" height="43" viewBox="0 0 67 43" fill="none" xmlns="http://www.w3.org/2000/svg">
<g filter="url(#filter0_d_60_261)">
<path d="M7.82512 8.91066C7.81022 4.76472 10.3334 2.46542 14.9658 2.44819C18.2993 2.43566 18.8951 4.72869 18.8951 5.56195C18.8951 7.158 16.7472 8.85115 16.7472 8.85115C16.7472 8.85115 16.8664 9.84574 18.7104 9.8379C20.5544 9.83007 22.3507 8.55042 22.3403 5.34737C22.3314 1.66818 18.6657 -0.0140087 15.0418 8.78377e-05C12.0106 0.0110518 3.97177 0.459008 4.00007 8.85115C4.02689 16.3051 17.4056 16.9629 17.416 21.7354C17.4339 26.9182 11.9049 28.3138 10.0341 28.3138C8.16323 28.3138 7.4021 26.9213 7.39912 26.157C7.38571 21.9594 11.3582 20.7909 11.3582 20.7909C11.3582 20.4777 11.1259 19.0821 9.5872 19.0884C5.62363 19.0962 4.04476 22.6798 4.05668 26.1789C4.0671 29.1549 6.0675 31.0125 9.08822 30.9999C14.8645 30.978 21.3781 28.0146 21.3543 21.4331C21.3334 15.2776 7.8415 13.6706 7.82512 8.91066Z" fill="#DBDBDB"/>
<path d="M62.8905 25.402C62.8443 25.2845 62.7147 25.3127 62.5434 25.4615C61.8881 26.0301 60.3896 27.6402 56.8833 27.6543C50.4904 27.6793 49.3807 16.5995 49.3807 16.5995C49.3807 16.5995 54.2529 12.7746 55.014 11.2318C55.7751 9.68904 53.3532 9.35229 53.3532 9.35229C53.3532 9.35229 49.9452 13.7128 47.5292 14.9909C47.7914 13.0941 49.5788 8.7712 49.6816 6.28551C49.7844 3.79982 46.8351 4.40597 46.3645 4.64405C46.3645 5.72948 43.7593 15.583 42.8105 20.9992C42.2519 21.9389 41.4536 23.0134 40.7386 23.015C40.3245 23.015 40.1726 22.2083 40.1681 21.0524C40.1681 19.4485 41.0082 16.8783 41.0022 15.3167C41.0022 14.236 40.5301 14.1717 40.1234 14.1733C40.0356 14.1733 39.547 14.1874 39.4576 14.1874C38.415 14.1874 38.7576 13.2476 37.8192 13.257C34.9474 13.268 31.2892 16.565 31.1298 21.5411C30.1602 22.2162 28.8032 23.0667 28.1106 23.0698C27.3837 23.0698 27.2035 22.3634 27.202 21.7525C27.202 20.6796 28.8524 14.3049 28.8524 14.3049C28.8524 14.3049 30.9541 13.7379 31.8716 13.5515C32.5657 13.409 32.7653 13.3557 33.0349 13.0033C33.3045 12.6509 33.8318 11.9226 34.2578 11.2679C34.6838 10.6131 34.2652 10.1072 33.4773 10.1104C32.4436 10.1104 29.6776 10.7995 29.6776 10.7995C29.6776 10.7995 31.0062 4.77561 31.0047 4.65344C31.0032 4.53127 30.8557 4.46706 30.6308 4.46862C30.1274 4.46862 29.2292 4.75368 28.6543 4.96983C27.774 5.30032 27.0575 6.43431 26.913 6.96214C26.7686 7.48998 25.7736 11.6234 25.7736 11.6234C25.7736 11.6234 20.4456 13.5578 19.7172 13.8475C19.6955 13.8554 19.6767 13.8701 19.6633 13.8898C19.6499 13.9094 19.6428 13.933 19.6428 13.9572C19.6428 14.0073 20.252 16.4632 21.5017 16.4538C22.3954 16.4538 25.0214 15.323 25.0214 15.323C25.0214 15.323 23.6719 20.9616 23.6808 22.8411C23.6808 24.0471 24.2215 25.4599 26.4617 25.4521C28.547 25.4521 30.3717 24.3197 31.3935 23.5318C31.952 25.0182 33.2717 25.4255 34.1729 25.4223C36.1926 25.4223 37.7477 23.7276 37.9473 23.5005C38.2094 24.1521 38.8276 25.4035 40.2396 25.3988C41.038 25.3988 41.8647 24.4591 42.4739 23.5475C42.4623 23.7369 42.4648 23.927 42.4813 24.1161C42.7256 26.453 46.0248 25.0793 46.2051 24.7535C46.3168 23.0635 46.2468 19.6083 46.8888 17.475C47.7408 24.752 50.973 29.6466 56.7835 29.6247C60.0321 29.6121 61.6989 28.6301 62.3885 27.8203C62.6654 27.4982 62.8574 27.1056 62.9455 26.6814C63.0335 26.2572 63.0146 25.8161 62.8905 25.402ZM35.0115 23.0024C32.2216 23.0134 35.8649 15.4091 38.2452 15.3997C38.2482 16.3802 38.196 22.9915 35.0115 23.0024Z" fill="#DBDBDB"/>
<path d="M57.6608 25.3331C60.1796 25.3237 62.1293 23.5804 62.4868 23.0134C62.9486 22.2757 61.9506 21.1621 61.6333 21.1808C60.8379 21.9812 60.0068 22.9492 58.1405 22.9554C55.9434 22.9648 56.4409 20.4228 56.4409 20.4228C56.4409 20.4228 60.6696 20.9976 62.3692 17.8008C62.9128 16.778 62.9352 15.3637 62.7162 14.7544C62.4973 14.1451 61.2669 13.0174 59.3097 13.1881C56.9057 13.4011 53.876 16.0372 53.2102 19.2026C52.6755 21.7494 53.6868 25.3487 57.6608 25.3331ZM60.3419 14.6667C60.7382 14.6526 60.7024 15.3386 60.5966 16.056C60.4477 17.0286 59.1772 19.5018 56.7522 19.4047C56.9206 17.9653 58.7243 14.7231 60.3464 14.6667H60.3419Z" fill="#DBDBDB"/>
<path d="M21 32.5592C21 31.5692 21.3657 30.7618 22.0972 30.1369C22.8287 29.512 23.7497 29.1995 24.8602 29.1995C25.4321 29.1995 25.8843 29.3016 26.2168 29.5058C26.5493 29.7038 26.7155 29.9544 26.7155 30.2575C26.7155 30.5607 26.6025 30.7927 26.3764 30.9536C26.1569 31.1145 25.9142 31.1949 25.6482 31.1949C25.3889 31.1949 25.1495 31.1299 24.93 31C24.7172 30.8701 24.551 30.6814 24.4313 30.4339C24.0124 30.5947 23.6799 30.8794 23.4338 31.2877C23.1944 31.6961 23.0747 32.1044 23.0747 32.5128C23.0747 32.9211 23.1612 33.2521 23.3341 33.5058C23.507 33.7595 23.7331 33.8863 24.0124 33.8863C24.2916 33.8863 24.5177 33.7997 24.6906 33.6264C24.8702 33.4532 24.96 33.1964 24.96 32.8561C25.9308 32.8561 26.4163 33.0696 26.4163 33.4965C26.4163 33.8616 26.1702 34.205 25.6781 34.5267C25.186 34.8422 24.5377 35 23.7331 35C22.9284 35 22.2701 34.7773 21.7581 34.3318C21.2527 33.8801 21 33.2892 21 32.5592Z" fill="#DBDBDB"/>
<path d="M28.3982 28.9954L27.8396 28.2529C28.6708 27.8012 29.3258 27.5754 29.8046 27.5754C30.0773 27.5754 30.2701 27.628 30.3831 27.7332C30.4962 27.8322 30.5527 28.024 30.5527 28.3086C30.5527 28.587 30.4031 29.379 30.1039 30.6845C29.8113 31.9899 29.665 32.9056 29.665 33.4316C29.665 33.9575 29.768 34.3287 29.9742 34.5452C29.5087 34.8484 29.0864 35 28.7074 35C28.3284 35 28.0491 34.8855 27.8695 34.6566C27.6966 34.4215 27.6102 34.0998 27.6102 33.6914C27.6102 33.2831 27.7332 32.4478 27.9792 31.1856C28.2253 29.9234 28.3649 29.1933 28.3982 28.9954Z" fill="#DBDBDB"/>
<path d="M34.5203 27.7332C34.5203 27.9683 34.3873 28.1725 34.1213 28.3457C33.8553 28.5128 33.5528 28.5963 33.2136 28.5963C32.8745 28.5963 32.6052 28.5344 32.4057 28.4107C32.2128 28.2869 32.1164 28.1199 32.1164 27.9095C32.1164 27.6249 32.2594 27.4022 32.5453 27.2413C32.8313 27.0804 33.1338 27 33.453 27C33.7722 27 34.0282 27.0619 34.2211 27.1856C34.4206 27.3094 34.5203 27.4919 34.5203 27.7332ZM32.5752 35C32.163 35 31.8637 34.9041 31.6775 34.7123C31.4913 34.5205 31.3982 34.2297 31.3982 33.8399C31.3982 33.4439 31.611 32.389 32.0366 30.6752L31.478 29.8956C32.3092 29.4316 32.9642 29.1995 33.443 29.1995C33.7157 29.1995 33.9085 29.2552 34.0216 29.3666C34.1346 29.4718 34.1911 29.645 34.1911 29.8863C34.1911 29.9791 34.0681 30.5236 33.8221 31.5197C33.576 32.5159 33.453 33.2274 33.453 33.6543C33.453 34.0812 33.5561 34.3782 33.7622 34.5452C33.3898 34.8484 32.9942 35 32.5752 35Z" fill="#DBDBDB"/>
<path d="M35.0659 32.5592C35.0659 31.5692 35.4316 30.7618 36.1631 30.1369C36.8946 29.512 37.8156 29.1995 38.9261 29.1995C39.498 29.1995 39.9501 29.3016 40.2826 29.5058C40.6151 29.7038 40.7814 29.9544 40.7814 30.2575C40.7814 30.5607 40.6683 30.7927 40.4422 30.9536C40.2228 31.1145 39.9801 31.1949 39.7141 31.1949C39.4547 31.1949 39.2153 31.1299 38.9959 31C38.7831 30.8701 38.6169 30.6814 38.4972 30.4339C38.0782 30.5947 37.7457 30.8794 37.4997 31.2877C37.2603 31.6961 37.1406 32.1044 37.1406 32.5128C37.1406 32.9211 37.2271 33.2521 37.3999 33.5058C37.5728 33.7595 37.7989 33.8863 38.0782 33.8863C38.3575 33.8863 38.5836 33.7997 38.7565 33.6264C38.936 33.4532 39.0258 33.1964 39.0258 32.8561C39.9967 32.8561 40.4821 33.0696 40.4821 33.4965C40.4821 33.8616 40.2361 34.205 39.744 34.5267C39.2519 34.8422 38.6036 35 37.7989 35C36.9943 35 36.336 34.7773 35.8239 34.3318C35.3186 33.8801 35.0659 33.2892 35.0659 32.5592Z" fill="#DBDBDB"/>
<path d="M42.4142 28.9954L41.8556 28.2529C42.6868 27.8012 43.3418 27.5754 43.8206 27.5754C44.0932 27.5754 44.2861 27.628 44.3991 27.7332C44.5122 27.8322 44.5687 28.0023 44.5687 28.2436C44.5687 28.4787 44.5255 28.8097 44.439 29.2367C44.3592 29.6636 44.2495 30.1678 44.1099 30.7494C43.9769 31.331 43.8805 31.7981 43.8206 32.1508L44.449 31.6311C44.5089 31.5816 44.6053 31.5043 44.7383 31.3991C44.8779 31.2877 44.9743 31.2073 45.0275 31.1578C45.0874 31.1083 45.1672 31.0402 45.2669 30.9536C45.3667 30.8608 45.4398 30.7834 45.4864 30.7216C45.5329 30.6597 45.5861 30.5886 45.646 30.5081C45.7391 30.372 45.7856 30.2204 45.7856 30.0534C45.7856 29.8801 45.759 29.7285 45.7058 29.5986C46.178 29.3326 46.6235 29.1995 47.0424 29.1995C47.3217 29.1995 47.5445 29.2831 47.7107 29.4501C47.877 29.611 47.9601 29.8461 47.9601 30.1555C47.9601 30.4648 47.8072 30.7773 47.5013 31.0928C47.202 31.4022 46.8296 31.6744 46.3841 31.9095C46.5902 32.5468 46.8562 33.1315 47.1821 33.6636C47.5079 34.1957 47.7806 34.5143 48 34.6195C47.734 34.8732 47.3217 35 46.7631 35C46.3508 35 46.0017 34.8701 45.7158 34.6102C45.4365 34.3503 45.1871 33.9234 44.9677 33.3295L44.7183 32.6705L43.6909 33.1439C43.6843 33.2119 43.681 33.314 43.681 33.4501C43.681 33.9636 43.784 34.3287 43.9902 34.5452C43.5247 34.8484 43.1024 35 42.7234 35C42.3443 35 42.0651 34.8855 41.8855 34.6566C41.7126 34.4215 41.6262 34.0998 41.6262 33.6914C41.6262 33.2831 41.7492 32.4478 41.9952 31.1856C42.2413 29.9234 42.3809 29.1933 42.4142 28.9954Z" fill="#DBDBDB"/>
</g>
<defs>
<filter id="filter0_d_60_261" x="0" y="0" width="67" height="43" filterUnits="userSpaceOnUse" color-interpolation-filters="sRGB">
<feFlood flood-opacity="0" result="BackgroundImageFix"/>
<feColorMatrix in="SourceAlpha" type="matrix" values="0 0 0 0 0 0 0 0 0 0 0 0 0 0 0 0 0 0 127 0" result="hardAlpha"/>
<feOffset dy="4"/>
<feGaussianBlur stdDeviation="2"/>
<feComposite in2="hardAlpha" operator="out"/>
<feColorMatrix type="matrix" values="0 0 0 0 0 0 0 0 0 0 0 0 0 0 0 0 0 0 0.25 0"/>
<feBlend mode="normal" in2="BackgroundImageFix" result="effect1_dropShadow_60_261"/>
<feBlend mode="normal" in="SourceGraphic" in2="effect1_dropShadow_60_261" result="shape"/>
</filter>
</defs>
</svg>
