<svg width="34" height="34" viewBox="0 0 34 34" fill="none" xmlns="http://www.w3.org/2000/svg">
<path d="M6.81541 29.5289L6.0625 28.7794L7.4308 27.4048L7.43744 26.0289L8.49994 26.0338L8.49257 27.6276C8.49191 27.7672 8.43633 27.9009 8.33784 27.9999L6.81541 29.5289Z" fill="#71DFBF"/>
<path d="M5.22098 23.6862L4.46973 22.9349L8.65525 18.7493C8.70458 18.7 8.76315 18.6609 8.8276 18.6342C8.89206 18.6075 8.96114 18.5937 9.03091 18.5938H14.3434V19.6562H9.25091L5.22098 23.6862Z" fill="#71DFBF"/>
<path d="M15.2469 17.5919L13.0612 15.4062H9.5625V14.3438H13.2812C13.351 14.3437 13.4201 14.3575 13.4846 14.3842C13.549 14.4109 13.6076 14.45 13.6569 14.4993L15.9982 16.8406L15.2469 17.5919Z" fill="#71DFBF"/>
<path d="M13.721 27.405L12.9697 26.6537L16.2878 23.3356L14.2151 20.7447L15.0448 20.0811L17.4145 23.043C17.4962 23.1451 17.5373 23.2737 17.5301 23.4042C17.5229 23.5348 17.4678 23.6581 17.3753 23.7505L13.721 27.405Z" fill="#71DFBF"/>
<path d="M3.71875 26.5625C3.29847 26.5625 2.88762 26.4379 2.53816 26.2044C2.18871 25.9709 1.91634 25.639 1.75551 25.2507C1.59467 24.8624 1.55259 24.4351 1.63458 24.0229C1.71658 23.6107 1.91896 23.2321 2.21615 22.9349C2.51334 22.6377 2.89197 22.4353 3.30418 22.3533C3.71639 22.2713 4.14366 22.3134 4.53195 22.4743C4.92025 22.6351 5.25213 22.9075 5.48562 23.2569C5.71912 23.6064 5.84375 24.0172 5.84375 24.4375C5.84312 25.0009 5.61903 25.541 5.22065 25.9394C4.82228 26.3378 4.28214 26.5619 3.71875 26.5625ZM3.71875 23.375C3.50861 23.375 3.30319 23.4373 3.12846 23.5541C2.95373 23.6708 2.81755 23.8368 2.73713 24.0309C2.65671 24.225 2.63567 24.4387 2.67667 24.6448C2.71766 24.8509 2.81886 25.0402 2.96745 25.1888C3.11604 25.3374 3.30536 25.4386 3.51147 25.4796C3.71757 25.5206 3.93121 25.4995 4.12535 25.4191C4.3195 25.3387 4.48544 25.2025 4.60219 25.0278C4.71894 24.8531 4.78125 24.6476 4.78125 24.4375C4.78094 24.1558 4.66889 23.8857 4.4697 23.6866C4.27051 23.4874 4.00045 23.3753 3.71875 23.375Z" fill="#71DFBF"/>
<path d="M7.96875 17C7.54847 17 7.13762 16.8754 6.78816 16.6419C6.43871 16.4084 6.16634 16.0765 6.00551 15.6882C5.84467 15.2999 5.80259 14.8726 5.88458 14.4604C5.96658 14.0482 6.16896 13.6696 6.46615 13.3724C6.76334 13.0752 7.14197 12.8728 7.55418 12.7908C7.96639 12.7088 8.39366 12.7509 8.78195 12.9118C9.17025 13.0726 9.50213 13.345 9.73562 13.6944C9.96912 14.0439 10.0938 14.4547 10.0938 14.875C10.0931 15.4384 9.86903 15.9785 9.47065 16.3769C9.07228 16.7753 8.53214 16.9994 7.96875 17ZM7.96875 13.8125C7.75861 13.8125 7.55319 13.8748 7.37846 13.9916C7.20373 14.1083 7.06755 14.2743 6.98713 14.4684C6.90671 14.6625 6.88567 14.8762 6.92667 15.0823C6.96766 15.2884 7.06886 15.4777 7.21745 15.6263C7.36604 15.7749 7.55536 15.8761 7.76147 15.9171C7.96757 15.9581 8.18121 15.937 8.37535 15.8566C8.5695 15.7762 8.73544 15.64 8.85219 15.4653C8.96894 15.2906 9.03125 15.0851 9.03125 14.875C9.03094 14.5933 8.91889 14.3232 8.7197 14.1241C8.52051 13.9249 8.25045 13.8128 7.96875 13.8125Z" fill="#71DFBF"/>
<path d="M12.2188 30.2813C11.7985 30.2813 11.3876 30.1566 11.0382 29.9231C10.6887 29.6896 10.4163 29.3577 10.2555 28.9695C10.0947 28.5812 10.0526 28.1539 10.1346 27.7417C10.2166 27.3295 10.419 26.9508 10.7161 26.6536C11.0133 26.3565 11.392 26.1541 11.8042 26.0721C12.2164 25.9901 12.6437 26.0322 13.032 26.193C13.4202 26.3538 13.7521 26.6262 13.9856 26.9757C14.2191 27.3251 14.3438 27.736 14.3438 28.1563C14.3431 28.7196 14.119 29.2598 13.7207 29.6582C13.3223 30.0565 12.7821 30.2806 12.2188 30.2813ZM12.2188 27.0938C12.0086 27.0938 11.8032 27.1561 11.6285 27.2728C11.4537 27.3896 11.3175 27.5555 11.2371 27.7497C11.1567 27.9438 11.1357 28.1574 11.1767 28.3635C11.2177 28.5696 11.3189 28.759 11.4675 28.9076C11.616 29.0561 11.8054 29.1573 12.0115 29.1983C12.2176 29.2393 12.4312 29.2183 12.6254 29.1379C12.8195 29.0575 12.9854 28.9213 13.1022 28.7465C13.2189 28.5718 13.2813 28.3664 13.2813 28.1563C13.2809 27.8746 13.1689 27.6045 12.9697 27.4053C12.7705 27.2061 12.5004 27.0941 12.2188 27.0938Z" fill="#71DFBF"/>
<path d="M5.3125 32.4063C4.89222 32.4063 4.48137 32.2816 4.13191 32.0481C3.78246 31.8146 3.51009 31.4827 3.34926 31.0945C3.18842 30.7062 3.14634 30.2789 3.22833 29.8667C3.31033 29.4545 3.51271 29.0758 3.8099 28.7786C4.10709 28.4815 4.48572 28.2791 4.89793 28.1971C5.31014 28.1151 5.73741 28.1572 6.1257 28.318C6.514 28.4788 6.84588 28.7512 7.07937 29.1007C7.31287 29.4501 7.4375 29.861 7.4375 30.2813C7.43687 30.8446 7.21278 31.3848 6.8144 31.7832C6.41603 32.1815 5.87589 32.4056 5.3125 32.4063ZM5.3125 29.2188C5.10236 29.2188 4.89694 29.2811 4.72221 29.3978C4.54748 29.5146 4.4113 29.6805 4.33088 29.8747C4.25046 30.0688 4.22942 30.2824 4.27042 30.4885C4.31141 30.6946 4.41261 30.884 4.5612 31.0326C4.70979 31.1811 4.89911 31.2823 5.10522 31.3233C5.31132 31.3643 5.52496 31.3433 5.7191 31.2629C5.91325 31.1825 6.07919 31.0463 6.19594 30.8715C6.31269 30.6968 6.375 30.4914 6.375 30.2813C6.37469 29.9996 6.26264 29.7295 6.06345 29.5303C5.86426 29.3311 5.5942 29.2191 5.3125 29.2188Z" fill="#71DFBF"/>
<path d="M9.5625 10.625C11.9097 10.625 13.8125 8.72221 13.8125 6.375C13.8125 4.02779 11.9097 2.125 9.5625 2.125C7.21529 2.125 5.3125 4.02779 5.3125 6.375C5.3125 8.72221 7.21529 10.625 9.5625 10.625Z" fill="#7349DD"/>
<path d="M25.2344 31.875C28.9019 31.875 31.875 28.9019 31.875 25.2344C31.875 21.5669 28.9019 18.5938 25.2344 18.5938C21.5669 18.5938 18.5938 21.5669 18.5938 25.2344C18.5938 28.9019 21.5669 31.875 25.2344 31.875Z" fill="#F9EA67"/>
<path d="M27.127 9.12715C27.127 9.12715 31.2591 12.508 31.6347 15.8888C31.6347 15.8888 33.1373 12.1323 28.6295 7.62451" fill="#DF6D52"/>
<path d="M24.873 6.87306C24.873 6.87306 21.4922 2.74107 18.1113 2.36541C18.1113 2.36541 21.8679 0.862833 26.3757 5.37062L24.873 6.87306Z" fill="#DF6D52"/>
<path d="M6.46582 26.0312L24.7038 7.80579L26.2379 9.36813L7.88154 27.6995L6.46582 26.0312Z" fill="#71DFBF"/>
<path d="M10.049 4.82775L9.25357 4.12305L7.5709 6.02306C7.52228 6.07801 7.48557 6.14243 7.46308 6.21226C7.44059 6.2821 7.4328 6.35584 7.44022 6.42883C7.44764 6.50182 7.4701 6.57249 7.50618 6.63637C7.54226 6.70026 7.59118 6.75597 7.64986 6.80002L9.77486 8.39376L10.4124 7.54377L8.74842 6.29586L10.049 4.82775Z" fill="#71DFBF"/>
<path d="M27.0938 22.8438H25.5V21.7812H24.4375V22.8438H23.9062V21.7812H22.8438V29.2188H23.9062V28.1562H24.4375V29.2188H25.5V28.1562H27.0938C27.2346 28.1562 27.3698 28.1003 27.4694 28.0007C27.569 27.901 27.625 27.7659 27.625 27.625V23.375C27.625 23.2341 27.569 23.099 27.4694 22.9993C27.3698 22.8997 27.2346 22.8438 27.0938 22.8438ZM26.5625 23.9062V24.9688H23.9062V23.9062H26.5625ZM23.9062 27.0938V26.0312H26.5625V27.0938H23.9062Z" fill="#7349DD"/>
<path d="M10.7493 4.97171L9.8418 6.05627L10.6566 6.73813L11.5642 5.65356L10.7493 4.97171Z" fill="#71DFBF"/>
<path d="M26.375 5.37061L24.1211 7.62451L26.375 9.87841L28.6289 7.62451L26.375 5.37061Z" fill="#BF5843"/>
<path opacity="0.3" d="M28.8861 19.6874C27.6012 18.8416 26.0626 18.4681 24.5329 18.6307C23.0033 18.7933 21.5775 19.4818 20.4991 20.5787C19.4207 21.6756 18.7565 23.1129 18.62 24.6451C18.4834 26.1773 18.883 27.7093 19.7505 28.9796C26.1169 26.7274 28.2031 22.3283 28.8861 19.6874Z" fill="#FCFCFC"/>
<path opacity="0.3" d="M11.8863 2.81744C11.1061 2.30793 10.1801 2.06896 9.25079 2.13731C8.32147 2.20565 7.44037 2.57752 6.74311 3.19568C6.04585 3.81384 5.57107 4.64403 5.39185 5.55846C5.21263 6.47289 5.33891 7.42088 5.75125 8.25651C9.81518 7.08092 11.3252 4.54221 11.8863 2.81744Z" fill="#FCFCFC"/>
<path opacity="0.2" d="M26.0508 9.55584L24.4932 8.01721L23.9204 8.58957C24.069 8.92412 24.1341 9.41134 23.9066 10.094L7.15625 26.844L7.38867 27.1182L7.43781 27.0937H8.48882L26.0508 9.55584Z" fill="#191500"/>
</svg>
