<svg width="428" height="115" viewBox="0 0 428 115" fill="none" xmlns="http://www.w3.org/2000/svg">
<path d="M59 75C74.1419 75 87.3187 66.5865 94.1106 54.1794C99.4145 44.4905 107.954 35 119 35H403C416.807 35 428 46.1929 428 60V105C428 110.523 423.523 115 418 115H10C4.47715 115 0 110.523 0 105V60C0 57.194 0.462286 54.496 1.31485 51.9779C5.43098 39.821 19.3026 48.7775 27.0212 59.0321C34.3204 68.7294 45.9279 75 59 75Z" fill="#151D30"/>
<circle cx="60" cy="35" r="35" fill="#202E49"/>
<path d="M49.0802 31.2945L45.313 35.4114L43.8009 33.924C43.16 33.2934 42.122 33.2934 41.4808 33.924C40.8396 34.5547 40.8399 35.5762 41.4808 36.2072L44.2151 38.898C44.5228 39.2054 44.9418 39.3736 45.3137 39.3736C45.3286 39.3736 45.3415 39.3736 45.3564 39.3726C45.8072 39.361 46.2321 39.1687 46.5335 38.8397L51.4554 33.458C52.0621 32.7948 52.0065 31.7743 51.3336 31.1769C50.7209 30.5814 49.6886 30.6352 49.0802 31.2945ZM49.0802 20.5339L45.313 24.6481L43.8009 23.1608C43.16 22.5301 42.122 22.5301 41.4808 23.1608C40.8396 23.7915 40.8399 24.813 41.4808 25.444L44.2151 28.1348C44.5228 28.4422 44.9418 28.6104 45.3137 28.6104C45.3286 28.6104 45.3415 28.6104 45.3564 28.6093C45.8072 28.5978 46.2321 28.4054 46.5335 28.0764L51.4554 22.6948C52.0621 22.0316 52.0065 21.011 51.3336 20.4136C50.7209 19.8188 49.6886 19.8713 49.0802 20.5339ZM44.2814 42.542C42.4692 42.542 41.0002 43.9877 41.0002 45.771C41.0002 47.5544 42.4692 49 44.2814 49C46.0936 49 47.5627 47.5544 47.5627 45.771C47.5627 44.0489 46.0936 42.542 44.2814 42.542ZM58.5001 26.4577H73.8125C75.0204 26.4577 76 25.4937 76 24.3051C76 23.1164 75.0204 22.1524 73.8125 22.1524H58.5001C57.2902 22.1524 56.3126 23.1164 56.3126 24.3051C56.3126 25.4937 57.2902 26.4577 58.5001 26.4577ZM73.8125 32.9157H58.5001C57.2902 32.9157 56.3126 33.8776 56.3126 35.0683C56.3126 36.259 57.2922 37.221 58.5001 37.221H73.8125C75.0204 37.221 76 36.257 76 35.0683C76 33.8797 75.0225 32.9157 73.8125 32.9157ZM73.8125 43.6789H54.1251C52.9172 43.6789 51.9376 44.6429 51.9376 45.8316C51.9376 47.0202 52.9172 47.9842 54.1251 47.9842H73.8125C75.0204 47.9842 76 47.0202 76 45.8316C76 44.6429 75.0225 43.6789 73.8125 43.6789Z" fill="#41FDB9"/>
</svg>
