<svg width="219" height="270" viewBox="0 0 219 270" fill="none" xmlns="http://www.w3.org/2000/svg">
<path fill-rule="evenodd" clip-rule="evenodd" d="M62.9596 0.472483C60.6977 1.48541 60.8197 0.445673 60.8197 18.7252C60.8197 32.8494 60.8733 35.0156 61.2386 35.7226C61.7669 36.7439 63.6303 37.5771 65.3876 37.5771C67.3382 37.5771 67.865 38.1364 68.1146 40.4745C68.471 43.8102 69.834 45.1128 72.9685 45.1128C75.254 45.1128 75.622 45.6463 75.622 48.959C75.622 52.2895 75.3791 52.514 71.7753 52.514C68.6934 52.514 68.2524 52.1161 68.0085 49.1162C67.6836 45.1233 63.7312 43.6368 61.3816 46.6241C60.8554 47.2927 60.8197 47.6727 60.8197 52.5544V57.7699L61.7001 58.7308C62.5075 59.6118 62.753 59.7112 64.6522 59.9241C68.3086 60.3341 68.143 59.9361 68.0337 68.0532C67.9401 75.0291 68.0342 74.76 65.6004 74.9929C60.8522 75.4465 60.7177 75.2652 60.5505 68.182C60.3576 59.9945 60.4065 60.0486 53.1494 60.0523C48.4091 60.0544 48.2855 60.0691 47.404 60.7252C44.2138 63.099 45.8102 67.4508 49.8709 67.4508C52.7604 67.4508 53.0784 67.894 52.9591 71.7496C52.8534 75.1732 53.2293 75.0176 45.2862 74.9251C37.3399 74.832 38.1194 75.5374 37.9859 68.3218C37.8724 62.1791 37.7457 61.6245 36.2481 60.7115C33.7129 59.1656 30.6768 60.979 30.6768 64.0399C30.6768 67.0629 30.2452 67.4435 26.7323 67.5187C23.6998 67.5833 23.141 67.2001 23.141 65.0555C23.141 60.7073 20.9417 59.5498 13.5222 59.9924C8.5185 60.291 8.25988 60.6936 8.04647 68.5274C7.95974 71.7097 7.8688 74.3395 7.84462 74.3716C7.57443 74.7253 6.37069 75.0428 4.95985 75.1316C-1.02363 75.5085 -0.610468 82.5223 5.39614 82.5223C7.68324 82.5223 8.14213 83.2267 8.02702 86.5588C7.9161 89.7689 7.87931 89.8146 5.19166 90.0507C1.04586 90.416 -0.665136 93.2676 1.60725 96.0247C3.15371 97.9002 12.2238 98.337 14.0273 96.6223C15.6148 95.1137 15.6053 95.1805 15.6053 85.509C15.6053 73.7686 14.7201 74.9082 23.7377 75.0376C30.6147 75.1358 30.3151 75.006 30.6547 78.0338C31.0195 81.2875 31.8579 82.1533 34.9655 82.4855C37.5791 82.7646 37.9754 83.183 38.1972 85.8985C38.6582 91.533 44.873 91.4862 45.4975 85.8434C45.8696 82.476 45.7635 82.5223 53.1494 82.5223C60.529 82.5223 60.4554 82.4907 60.7235 85.7655C61.206 91.6655 68.0584 91.4026 68.0941 85.4827C68.1125 82.5328 68.1499 82.5223 78.7664 82.5218C86.6359 82.5212 87.7009 82.4703 88.5404 82.0508C89.7972 81.4232 90.6934 79.6475 90.6934 77.7851C90.6934 75.7036 91.2312 75.1811 93.5256 75.0349C97.0422 74.811 98.8741 72.5723 97.7792 69.8362C96.9849 67.8503 96.135 67.5854 90.5589 67.5854H85.7145L84.7283 68.3397C83.5188 69.2649 83.4179 69.5009 83.1577 72.0124C82.876 74.7248 82.5453 74.9866 79.3961 74.9866C75.9668 74.9866 75.622 74.667 75.622 71.4905C75.622 68.0206 76.0893 67.4508 78.933 67.4508C81.5744 67.4508 83.1482 65.7493 83.1656 62.8756C83.1824 60.1832 83.8342 59.9083 90.1536 59.9314C97.5426 59.9577 98.2291 60.2368 98.2291 63.2099C98.2291 66.1241 99.2479 67.1081 102.625 67.4556C105.054 67.7058 105.468 68.1205 105.615 70.4502C105.832 73.8932 105.224 74.9855 103.089 74.9881C99.2189 74.9929 97.0223 77.9491 98.7779 80.7903C99.7152 82.3068 100.932 82.5833 106.201 82.4781C112.169 82.3593 113.031 81.8069 113.031 78.1052C113.031 75.6242 113.684 75.1211 116.902 75.1211C120.243 75.1211 120.536 75.364 120.759 78.3229C120.989 81.3559 122.47 82.7904 124.97 82.4009C127.044 82.0776 127.86 80.9811 128.106 78.1873C128.395 74.8946 127.557 75.1437 138.856 74.9866L148.514 74.852L149.234 74.1792C150.592 72.9092 150.71 72.3878 150.71 67.6317C150.71 61.1562 149.911 59.9151 145.742 59.9151C143.3 59.9151 143.333 59.9971 143.148 53.4107C142.964 46.8354 142.942 46.7323 141.539 45.8035C138.66 43.8986 135.639 45.9512 135.639 49.8142C135.639 52.1807 134.529 52.8472 131.013 52.5928C128.865 52.4372 128.103 51.6703 128.103 49.6644C128.103 43.7556 121.308 43.3056 120.803 49.1808C120.561 51.9994 120.255 52.3337 117.729 52.5492C114.484 52.8262 113.031 54.3049 113.031 57.3316C113.031 59.615 112.609 59.9151 109.398 59.9151C106.785 59.9151 105.786 59.5277 105.754 58.5022C105.616 54.0079 104.6 52.6501 101.374 52.6475C100.458 52.647 99.6778 52.4635 99.1038 52.1134L98.2291 51.5799V46.1951C98.2291 37.2149 98.7427 37.5771 86.0094 37.5771H76.9429L76.2827 36.9163C75.7208 36.3544 75.622 36.0017 75.622 34.5567C75.622 31.571 74.0724 30.0414 71.0478 30.0414C69.6648 30.0414 69.3037 29.9378 68.747 29.3806L68.0863 28.7204V18.8997V9.07896L68.7265 8.33464C69.7841 7.10514 73.8921 7.04994 75.0905 8.24843C75.5988 8.75673 75.622 9.1783 75.622 18.0024V27.2249L76.3027 28.2268C77.4376 29.8973 77.979 30.0419 83.0773 30.0372C88.2255 30.0319 89.3004 29.7086 90.2287 27.8841C91.596 25.197 89.3577 22.5056 85.756 22.5056C83.5667 22.5056 83.1577 21.9301 83.1577 18.8476C83.1577 15.6349 83.3527 15.3684 85.8543 15.1586C90.0385 14.808 90.5589 13.9686 90.5589 7.56824C90.5589 -0.303377 91.5008 0.176016 75.8706 0.0950659C65.3261 0.0403982 63.8274 0.0840274 62.9596 0.472483ZM124.909 0.157618C119.523 0.559215 119.159 7.42789 124.524 7.43577C127.342 7.43998 127.844 7.88152 128.109 10.5934C128.498 14.5599 129.364 15.0782 135.581 15.0619C142.835 15.043 143.174 14.7081 143.174 7.56876C143.174 0.182324 143.173 0.180747 133.812 0.0693091C130.154 0.0256801 126.147 0.0656292 124.909 0.157618ZM183.006 0.176017C172.209 0.5466 166.479 4.37018 164.265 12.6823C163.499 15.5576 163.502 39.1635 164.269 42.0178C165.89 48.0533 170.198 52.3726 176.036 53.8171C181.507 55.1711 202.979 55.1159 206.555 53.7387C209.894 52.453 212.605 50.5181 214.44 48.1106C217.758 43.7587 218.257 41.0353 218.26 27.2375C218.262 18.65 218.177 17.1908 217.416 12.8169C216.62 8.23581 212.754 3.58381 208.23 1.76401C207.457 1.45282 206.42 1.02389 205.925 0.810476C204.189 0.0608987 194.32 -0.212439 183.006 0.176017ZM15.4708 0.428329C8.18314 1.2515 2.71374 6.45754 1.1841 14.028C0.70944 16.3787 0.629541 38.4565 1.08896 40.4855C1.24613 41.1804 1.50895 42.2938 1.67348 42.9598C2.75001 47.3237 7.36943 52.0072 12.1087 53.54C15.7257 54.7096 34.0772 55.2148 40.2168 54.3138C47.5023 53.2441 52.5554 48.9537 54.4141 42.2596C55.2309 39.3165 55.4953 18.4429 54.7652 14.5073C53.449 7.41212 50.0296 3.36461 43.4243 1.08329L41.3075 0.352634L29.3311 0.283775C22.7442 0.246454 16.5068 0.311109 15.4708 0.428329ZM40.4854 7.98876C43.7618 8.70206 46.8405 11.7761 47.414 14.9079C47.5423 15.6081 47.7189 19.9352 47.8061 24.5241C48.2298 46.787 47.548 47.4893 25.784 47.2007C14.7864 47.0546 14.1892 46.9657 11.9058 45.126C8.28406 42.2081 8.20416 41.8238 8.20416 27.35C8.20416 7.58611 8.41758 7.38373 29.062 7.55772C35.8055 7.61449 39.3868 7.74959 40.4854 7.98876ZM99.9244 8.23056C98.7716 8.93335 98.2302 10.0693 98.2249 11.7945C98.2181 14.3307 97.2514 15.1902 94.3682 15.2238C88.953 15.2869 89.6169 22.0157 95.0889 22.5277C98.0988 22.8089 98.0783 22.7637 98.1776 29.4137C98.298 37.472 98.4063 37.5771 106.569 37.5771C112.809 37.5771 112.885 37.6113 113.093 40.5223C113.539 46.7639 120.078 46.5967 120.699 40.3283C120.924 38.0565 121.439 37.5771 123.657 37.5771C127.386 37.5771 127.968 36.5784 127.968 30.1738C127.968 22.1729 128.49 22.5067 115.976 22.5062C104.672 22.5056 105.937 23.313 105.763 15.9871C105.646 11.0496 105.558 10.1261 105.143 9.49264C104.024 7.7848 101.612 7.20133 99.9244 8.23056ZM114.98 8.24002C113.172 9.34231 112.698 10.8462 113.56 12.7438C115.207 16.3708 120.565 15.2942 120.565 11.3366C120.565 8.48024 117.434 6.74402 114.98 8.24002ZM204.434 8.31781C209.838 10.1292 210.727 12.8615 210.727 27.6654C210.727 42.1713 209.753 44.9194 204.051 46.5C202.031 47.0603 181.225 47.2575 178.506 46.7418C175.13 46.1016 172.392 43.4218 171.575 39.9583C170.992 37.484 170.987 17.2365 171.569 14.7675C172.421 11.1532 175.103 8.61954 178.731 8.00032C181.515 7.52513 202.856 7.78901 204.434 8.31781ZM185.428 15.1465C180.174 15.4777 178.698 17.8437 178.497 26.2567C178.293 34.7948 179.006 37.1245 182.333 38.7882L183.948 39.5956H190.676C202.383 39.5956 203.056 38.9291 203.056 27.35C203.056 15.4157 201.23 14.1515 185.428 15.1465ZM20.0702 15.6627C16.3822 17.0136 15.6127 19.0232 15.6085 27.3085C15.6027 38.3572 16.9631 39.7065 28.12 39.716C38.9048 39.7254 39.9124 38.7304 40.046 27.9414C40.1563 19.0311 39.6633 17.4867 36.1961 15.8719C34.513 15.0882 22.0787 14.9268 20.0702 15.6627ZM144.902 15.7463C141.688 17.7065 143.493 22.7516 147.291 22.4242C151.784 22.0373 151.678 15.2369 147.18 15.2401C146.237 15.2406 145.441 15.4178 144.902 15.7463ZM137.657 23.1196C135.789 24.1698 135.595 24.8837 135.693 30.3347C135.805 36.5484 136.495 37.5771 140.552 37.5771C142.442 37.5771 142.926 38.1316 143.165 40.5754C143.487 43.8607 145.466 45.6306 147.929 44.8368C150.317 44.0673 150.701 43.0407 150.691 37.4425C150.681 31.3345 150.084 30.3373 146.243 30.023C143.632 29.8096 143.371 29.5483 143.157 26.9306C142.853 23.22 140.446 21.5521 137.657 23.1196ZM130.315 38.0097C126.757 39.8237 127.988 44.9336 131.983 44.9336C133.372 44.9336 134.371 44.3632 135.112 43.1469C136.96 40.117 133.483 36.3944 130.315 38.0097ZM90.0048 45.65C91.3132 46.9589 90.8932 51.6729 89.4124 52.2911C87.8349 52.9503 84.3346 52.6969 83.6697 51.8753C83.0074 51.0574 82.9353 47.1308 83.5609 45.9218C84.1669 44.7496 88.9041 44.5498 90.0048 45.65ZM107.169 45.9086C105.414 47.1797 105.252 49.9152 106.842 51.438C108.474 53.0012 111.599 52.4856 112.634 50.4829C114.428 47.0141 110.352 43.6026 107.169 45.9086ZM152.326 45.7846C150.883 46.8496 150.71 47.5886 150.71 52.6927C150.71 57.7715 150.885 58.4606 152.405 59.3879C154.318 60.5538 156.783 59.8095 157.852 57.7431C158.471 56.5468 158.411 48.539 157.774 47.2711C156.725 45.1811 154.111 44.4684 152.326 45.7846ZM134.945 60.702C135.98 61.6755 136.011 66.3375 134.987 67.0083C134.013 67.6469 122.453 67.6906 121.49 67.0592C120.816 66.6177 120.474 61.7097 121.053 60.7972C121.766 59.6765 133.767 59.5945 134.945 60.702ZM168.621 60.2379C165.414 60.9296 164.68 65.2184 167.477 66.9236C169.114 67.9218 171.534 67.3736 172.503 65.7851C174.226 62.9581 171.837 59.5445 168.621 60.2379ZM182.871 60.4092C179.226 62.6916 180.47 67.2974 184.781 67.4766C188.172 67.6175 188.174 67.6222 188.067 75.589C187.973 82.5806 188.094 82.2547 185.52 82.4529C181.857 82.7352 180.263 84.3384 180.887 87.1144C181.295 88.9315 182.931 90.0344 185.238 90.0486C187.406 90.0617 188.12 90.764 188.12 92.8823C188.12 96.6307 189.638 97.5943 195.539 97.5922C200.337 97.5906 201.308 97.3714 202.302 96.0678C204.336 93.4011 202.435 90.058 198.885 90.058C196.294 90.058 195.667 89.2921 195.658 86.1219C195.651 83.1452 196.302 82.5223 199.423 82.5223C202.538 82.5223 203.18 83.0963 203.187 85.8912C203.198 89.8961 207.839 91.4909 210.044 88.2466C210.591 87.4413 210.727 86.9146 210.727 85.5942C210.727 83.2824 211.425 82.5223 213.551 82.5223C217.91 82.5223 218.324 81.4894 218.213 70.8707C218.118 61.839 218.052 61.4789 216.307 60.5254C214.911 59.7627 184.075 59.6555 182.871 60.4092ZM175.605 67.8241C173.551 68.7545 173.048 70.159 173.05 74.9592C173.052 80.3629 173.788 82.0082 176.379 82.3967C179.64 82.886 180.564 81.2844 180.597 75.0906C180.625 69.6743 179.926 67.7326 177.939 67.7163C177.692 67.7142 177.246 67.6553 176.951 67.5854C176.655 67.5155 176.049 67.6227 175.605 67.8241ZM210.121 68.4044C211.057 69.4725 211.021 73.3712 210.066 74.3258C209.171 75.2215 205.009 75.3209 203.961 74.472C203.235 73.8843 202.887 70.1448 203.428 68.7397C203.997 67.2574 208.901 67.0119 210.121 68.4044ZM137.288 83.243C135.834 84.3889 135.639 85.1984 135.639 90.0759C135.639 94.9429 135.888 95.9153 137.366 96.8174C140.129 98.5031 143.174 96.6087 143.174 93.204C143.174 90.6357 143.723 90.0691 146.21 90.0617C150.97 90.048 152.443 84.4225 148.119 82.7783C146.405 82.127 138.261 82.4766 137.288 83.243ZM159.427 83.7202C156.685 86.348 158.663 90.058 162.808 90.058C165.063 90.058 165.503 90.5232 165.541 92.9512C165.604 96.9603 165.377 97.3477 162.904 97.4571C159.733 97.5969 158.499 98.757 158.232 101.85C158.005 104.475 157.57 104.925 155.185 105.002C152.043 105.104 150.993 106.194 150.695 109.663C150.483 112.121 150.409 112.182 147.166 112.533C141.884 113.106 141.915 119.932 147.199 119.932C150.109 119.932 150.71 120.598 150.71 123.825C150.71 126.814 150.145 127.467 147.561 127.468C144.801 127.469 143.478 128.807 143.174 131.907C142.92 134.508 142.685 134.748 140.164 134.995C136.331 135.37 134.471 138.057 136.244 140.655C137.419 142.376 138.094 142.539 144.057 142.539C150.692 142.539 150.71 142.548 150.71 146.008C150.71 149.469 150.163 150.075 147.037 150.075C143.636 150.075 141.923 154.22 144.373 156.522C144.872 156.991 145.521 157.182 147.258 157.37C150.337 157.704 150.71 158.123 150.71 161.244C150.71 164.617 150.293 165.018 146.82 164.992C143.578 164.968 143.456 164.866 143.159 161.92C142.827 158.623 141.453 157.341 138.25 157.341C135.753 157.341 135.794 157.442 135.639 150.837C135.554 147.217 135.389 144.897 135.192 144.557C133.046 140.851 128.104 142.571 128.103 147.025C128.102 149.389 127.376 150.075 124.873 150.075C122.307 150.075 120.836 151.44 120.836 153.821C120.836 156.251 122.612 157.558 125.97 157.599C127.44 157.617 128.021 158.425 128.154 160.635C128.333 163.622 129.617 164.871 132.721 165.076C135.394 165.253 135.624 165.548 135.633 168.8C135.64 171.871 135.239 172.41 132.93 172.418C126.877 172.443 126.368 179.49 132.387 179.932C135.342 180.149 135.624 180.485 135.633 183.796C135.641 187.201 135.245 187.571 131.732 187.443C128.555 187.326 128.376 187.176 128.103 184.388C127.722 180.496 126.8 179.949 120.624 179.949C113.105 179.948 113.198 179.814 113.08 190.714C112.964 201.469 113.192 202.072 117.516 202.433C120.425 202.674 120.611 202.906 120.648 206.323C120.683 209.487 120.486 209.709 117.338 210.06C113.164 210.524 111.712 213.92 114.548 216.585L115.228 217.223L127.711 217.299C143.208 217.392 142.779 217.515 143.186 212.839C143.397 210.419 143.478 210.338 145.92 210.099C148.154 209.881 148.626 209.682 149.768 208.482L150.576 207.634V202.563V197.492L149.74 196.46C147.415 193.587 143.531 195.14 143.191 199.078C142.924 202.176 142.677 202.411 139.546 202.534C137.067 202.632 135.639 204.359 135.639 207.257C135.639 209.642 134.719 210.237 131.327 210.045C128.662 209.895 128.264 209.452 128.157 206.518C128.037 203.236 128.445 202.689 131.165 202.483C134.445 202.235 135.369 201.319 135.653 198.033C135.871 195.5 136.141 195.235 138.747 194.986C143.039 194.576 143.009 194.657 143.174 182.967C143.328 172.115 143.142 172.859 145.778 172.53C150.699 171.915 150.71 171.939 150.711 183.126C150.712 195.363 150.501 195.025 158.111 195.008C163.929 194.995 165.51 194.27 165.539 191.604C165.581 187.561 165.727 187.484 173.298 187.484C180.796 187.484 180.584 187.375 180.584 191.23C180.584 194.475 180.342 194.801 177.815 194.954C175.617 195.088 174.835 195.416 173.949 196.578L173.214 197.541L173.221 202.481C173.227 206.977 173.276 207.485 173.76 208.134C176.352 211.606 180.287 210.08 180.746 205.425C181.021 202.635 181.149 202.558 185.495 202.547C196.096 202.521 195.713 202.945 195.699 191.264C195.693 185.357 195.597 182.759 195.369 182.318C194.501 180.642 193.156 179.948 190.774 179.948C188.085 179.948 188.122 180.103 188.122 168.779C188.122 157.34 188.004 157.783 191.125 157.474C194.53 157.137 195.474 156.22 195.795 152.936C196.06 150.22 196.244 150.074 199.397 150.079C202.262 150.084 202.494 150.16 202.905 151.242C203.633 153.157 203.145 164.738 202.33 164.892C202.285 164.901 201.348 164.97 200.247 165.046C196.949 165.275 195.924 166.164 195.924 168.797C195.924 170.158 196.017 170.406 196.824 171.213C197.777 172.166 198.019 172.251 200.762 172.597C203.275 172.914 203.182 172.51 203.192 183.043C203.2 191.733 203.213 191.947 203.801 192.978C205.941 196.725 210.727 194.861 210.727 190.28C210.727 188.207 211.457 187.484 213.551 187.484C217.354 187.484 219.34 184.247 217.309 181.358C216.702 180.494 215.216 179.949 213.452 179.944C211.085 179.938 210.727 179.432 210.727 176.093C210.727 173.05 210.994 172.716 213.612 172.498C217.671 172.16 218.128 171.403 218.128 165.024C218.128 158.439 217.393 157.341 212.982 157.341C210.744 157.341 210.727 157.286 210.727 150.051C210.727 142.698 210.781 142.543 213.37 142.533C217.347 142.517 218.263 141.202 218.261 135.51C218.259 128.868 217.421 127.467 213.451 127.467C211.146 127.467 210.727 126.886 210.727 123.693C210.727 120.65 211.021 120.229 213.283 120.04C217.722 119.669 218.262 118.898 218.262 112.942C218.262 106.459 217.63 105.355 213.723 105.014C211.055 104.781 210.727 104.455 210.727 102.029C210.727 95.9148 203.736 95.9884 203.151 102.108C202.908 104.653 202.693 104.867 200.2 105.043C194.022 105.477 194.094 112.148 200.28 112.532C203.247 112.716 203.27 112.783 203.142 120.965C203.038 127.661 203.148 127.467 199.423 127.467C196.184 127.467 195.88 127.21 195.625 124.248C195.294 120.393 194.764 120.123 187.132 119.937C183.998 119.86 181.349 119.711 181.244 119.606C180.737 119.097 180.605 116.154 180.586 104.86C180.57 95.7881 180.48 92.4639 180.238 92.0318C179.546 90.7971 178.457 90.2415 176.4 90.0733C173.799 89.8604 173.445 89.5261 173.217 87.0697C172.839 83.008 172.004 82.5223 165.393 82.5223H160.677L159.427 83.7202ZM104.957 86.8168C86.7868 90.1658 80.827 113.715 95.1982 125.38C109.493 136.982 130.808 126.974 130.877 108.628C130.93 94.7232 118.556 84.3105 104.957 86.8168ZM25.2994 90.5295C21.6135 92.3814 23.0391 97.538 27.1549 97.2431C31.0736 96.9619 31.7323 91.7685 28.0354 90.3045C27.1139 89.9397 26.3475 90.0028 25.2994 90.5295ZM48.1615 90.2788C44.8278 91.7559 44.9839 96.1351 48.4106 97.2857C51.5614 98.3438 54.2848 94.4761 52.3525 91.6875C51.3911 90.3003 49.5266 89.6738 48.1615 90.2788ZM69.8645 90.6215C66.5613 93.2198 68.1919 97.2116 72.6878 97.5333C75.1053 97.7062 75.5121 98.1357 75.684 100.695C75.9726 105.001 79.9659 106.494 82.3587 103.191L83.1577 102.088V97.7209C83.1577 92.855 82.9469 91.9535 81.5319 90.7629L80.694 90.058H75.6377C70.9127 90.058 70.5342 90.0948 69.8645 90.6215ZM152.528 90.5989C149.492 92.2473 150.522 96.9351 154.047 97.507C155.882 97.8045 158.273 95.6699 158.233 93.7691C158.176 91.0599 154.965 89.2753 152.528 90.5989ZM17.7636 98.0652C16.2834 98.809 15.6053 100.059 15.6053 102.044C15.6053 104.458 15.1837 104.892 12.6233 105.113C8.40706 105.476 6.63825 108.862 9.35428 111.37C10.4214 112.356 10.5601 112.377 16.0285 112.409C23.027 112.449 23.2861 112.604 23.1021 116.666C22.9755 119.449 22.5902 119.929 20.4755 119.938C17.3279 119.95 15.6248 121.58 15.6111 124.592C15.6011 126.866 15.0576 127.458 12.9729 127.463C6.64193 127.482 6.43167 134.417 12.7437 134.995C15.3041 135.23 15.6053 135.627 15.6053 138.771C15.6053 141.934 15.3456 142.261 12.6238 142.528C6.39803 143.138 6.67978 150.061 12.9319 150.079C15.0818 150.085 15.6053 150.663 15.6053 153.031C15.6053 154.636 16.0647 155.655 17.2312 156.636L18.069 157.341H26.9199H35.7714L36.7144 156.513C38.5889 154.868 38.3534 151.886 36.2481 150.602C35.4691 150.127 34.8678 150.077 29.9729 150.076C24.9046 150.075 24.514 150.039 23.8501 149.517L23.141 148.959V138.937C23.141 126.724 22.9271 127.276 27.5781 127.511C30.6147 127.664 30.5159 127.448 30.6768 134.272C30.8213 140.415 30.8918 140.735 32.3142 141.747C35.0544 143.699 38.2062 141.375 38.2109 137.4C38.213 135.655 38.7886 135.211 41.3685 134.965C47.1491 134.412 46.8389 127.467 41.0337 127.467C38.5715 127.467 37.9434 126.678 37.9434 123.584C37.9434 121.328 36.1551 119.932 33.2677 119.932C31.1362 119.932 30.8408 119.591 30.6568 116.926C30.4066 113.3 30.8444 112.618 33.489 112.525C36.8968 112.403 38.7639 110.186 37.7536 107.459C36.962 105.324 36.3475 105.129 30.4029 105.129C23.4354 105.129 23.3224 105.077 23.0669 101.763C22.8115 98.4385 20.3861 96.7474 17.7636 98.0652ZM62.7125 98.0652C61.5209 98.6661 60.7865 99.9429 60.785 101.415C60.7818 104.856 60.5631 104.968 53.5168 105.129L47.6411 105.264L46.7622 106.144C45.1437 107.763 45.662 111.062 47.6921 112.059C48.8191 112.613 71.0987 112.78 72.8881 112.249C77.4628 110.891 76.2302 105.598 71.2265 105.113C68.7864 104.877 68.3202 104.415 68.0589 101.973C67.6531 98.1735 65.5479 96.6349 62.7125 98.0652ZM119.76 99.4777C120.371 100.088 120.431 101.157 120.028 104.252C119.889 105.323 119.464 109.199 119.084 112.864C118.079 122.555 117.739 122.976 113.604 119.629C112.438 118.685 111.057 117.576 110.535 117.165C108.126 115.264 108.24 114.208 111.323 109.917C114.144 105.989 114.187 104.994 111.456 106.812C103.582 112.053 103.914 111.965 99.5927 109.947C94.3357 107.491 94.2237 106.495 99.0365 104.995C100.295 104.603 102.172 103.997 103.208 103.649C104.244 103.3 106.909 102.444 109.129 101.746C111.349 101.048 114.195 100.137 115.454 99.7221C118.201 98.8148 119.049 98.7665 119.76 99.4777ZM40.169 113.064C37.5922 114.184 37.6169 118.27 40.2084 119.499C42.7478 120.704 45.4754 119.033 45.478 116.271C45.4807 113.525 42.8135 111.915 40.169 113.064ZM172.45 113.084C173.003 113.472 173.048 113.715 173.048 116.298C173.048 120.144 173.483 119.932 165.587 119.932C157.874 119.932 158.246 120.116 158.246 116.298C158.246 112.481 157.874 112.665 165.587 112.665C170.821 112.665 171.95 112.734 172.45 113.084ZM3.35977 120.25C-0.0269961 121.46 -0.208871 125.968 3.08117 127.158C5.91758 128.184 8.60576 125.614 7.80572 122.643C7.53133 121.623 6.22877 120.205 5.55961 120.197C5.38562 120.195 5.00137 120.142 4.70543 120.077C4.40949 120.014 3.80394 120.092 3.35977 120.25ZM48.4395 120.194C43.9652 121.301 45.1495 127.061 49.9319 127.452C52.5012 127.663 53.0148 128.097 53.0148 130.061C53.0148 134.964 58.0663 136.846 60.2025 132.738C60.8228 131.545 60.7182 123.094 60.069 121.985C59.0414 120.231 58.5305 120.072 53.7355 120.013C51.3406 119.984 48.9578 120.065 48.4395 120.194ZM71.0467 127.652C68.102 128.235 67.2631 132.032 69.5949 134.223C70.2735 134.86 70.356 134.869 75.6262 134.869H80.9694L81.7658 134.105C83.5246 132.42 83.4316 129.73 81.5645 128.305C80.654 127.609 73.5036 127.166 71.0467 127.652ZM172.455 128.09C172.955 128.544 173.001 128.982 173.089 134.158C173.172 139.114 173.24 139.826 173.7 140.527C175.267 142.917 178.036 143.103 179.856 140.94L180.584 140.075V134.726C180.584 127.619 180.667 127.467 184.603 127.467C187.524 127.467 187.91 127.801 188.132 130.513C188.401 133.809 189.702 134.998 193.043 135.002C195.238 135.004 195.729 135.751 195.614 138.91C195.497 142.101 195.333 142.296 192.587 142.521C189.429 142.779 188.121 144.136 188.12 147.152C188.119 149.943 188.163 149.926 180.908 150.021C173.462 150.119 173.338 150.074 173.189 147.244C172.973 143.138 170.228 141.357 167.249 143.39C166.182 144.119 165.817 144.982 165.595 147.309C165.393 149.436 164.95 149.869 162.82 150.023C158.999 150.299 158.246 149.693 158.246 146.337C158.246 143.121 158.519 142.776 161.267 142.513C165.265 142.131 165.603 141.509 165.782 134.196C165.921 128.489 165.985 128.135 166.953 127.721C167.99 127.279 171.844 127.537 172.455 128.09ZM3.47857 135.256C0.970163 136.027 -0.0143806 138.597 1.35178 140.807C3.19104 143.783 7.96762 142.306 7.91611 138.777C7.87931 136.277 5.72257 134.566 3.47857 135.256ZM48.2776 135.188C47.9659 135.249 47.3104 135.713 46.82 136.219C44.2291 138.893 46.6875 143.249 50.2467 142.29C55.0217 141.005 53.1436 134.229 48.2776 135.188ZM63.05 135.293C60.4664 136.065 59.9481 140.294 62.2641 141.7C63.5247 142.465 64.6674 142.626 65.7035 142.185C70.1032 140.312 67.6421 133.921 63.05 135.293ZM100.735 135.191C100.411 135.254 99.7146 135.783 99.1874 136.366L98.2291 137.427V142.531V147.634L99.0502 148.569C101.548 151.414 105.32 149.847 105.649 145.828C105.891 142.866 106.185 142.539 108.603 142.539C113.194 142.539 114.929 136.468 110.675 135.286C109.72 135.021 101.991 134.947 100.735 135.191ZM55.1726 143.037C53.8159 143.765 53.0416 145.281 53.0222 147.249C52.9996 149.567 52.4255 150.075 49.8288 150.075C44.9997 150.075 44.094 157.237 48.9063 157.369C60.3576 157.682 60.6141 157.517 60.6588 149.798C60.683 145.604 60.6436 145.216 60.1221 144.511C58.7423 142.646 56.9151 142.103 55.1726 143.037ZM115.137 143.018C112.751 144.591 112.512 147.296 114.603 149.055C117.205 151.244 120.943 149.119 120.486 145.711C120.153 143.228 117.128 141.704 115.137 143.018ZM2.8215 150.331C1.29869 150.961 0.357255 152.996 0.810365 154.678C1.98782 159.05 8.78816 157.624 7.95448 153.18C7.52607 150.896 4.93357 149.458 2.8215 150.331ZM70.3518 150.335C69.8135 150.553 68.368 152.075 68.3438 152.45C68.0568 156.848 67.8334 157.188 65.0601 157.445C61.2008 157.803 60.5763 158.934 60.6583 165.419C60.745 172.245 60.8586 172.348 68.3916 172.425C75.3003 172.496 75.6209 172.635 75.623 175.557C75.6246 178.368 77.1879 179.946 79.9733 179.947C82.4623 179.949 83.1572 180.637 83.1582 183.098C83.1593 186.686 84.5202 187.484 90.634 187.484C97.7718 187.484 98.0489 187.225 98.1845 180.417C98.3132 173.971 97.3849 172.427 93.3669 172.404C91.2543 172.392 90.8932 172.02 90.664 169.619C90.3507 166.341 89.3283 165.146 86.8378 165.146C83.7002 165.146 83.1577 164.551 83.1577 161.11C83.1577 158.23 83.5609 157.773 86.3458 157.498C90.8217 157.057 92.2394 152.391 88.4873 150.451C87.6583 150.023 71.3816 149.919 70.3518 150.335ZM178.857 157.61C180.576 157.61 180.584 157.657 180.584 168.728C180.584 178.462 180.567 178.788 180.035 179.359C179.489 179.945 179.43 179.948 169.472 179.944C159.125 179.94 159.07 179.935 158.555 178.957C158.039 177.975 158.143 158.98 158.669 158.283C159.036 157.798 175.87 157.145 177.847 157.539C178.044 157.578 178.499 157.61 178.857 157.61ZM92.3529 158.233C91.2075 158.988 90.7144 159.889 90.7039 161.244C90.6713 165.388 96.6532 166.279 97.9584 162.324C99.0082 159.144 95.1935 156.36 92.3529 158.233ZM14.0121 163.437C7.21699 164.909 2.30742 170.048 1.04218 177.013C0.353049 180.807 0.534399 201.605 1.28135 204.44C2.97131 210.852 6.95522 214.96 13.2047 216.733C16.2004 217.583 40.5658 217.471 43.1914 216.595C49.2533 214.573 53.4122 210.068 54.6622 204.17C55.1947 201.66 55.1962 178.705 54.6648 176.181C53.305 169.723 48.1047 164.637 41.5877 163.39C38.694 162.837 16.6104 162.874 14.0121 163.437ZM168.361 165.275C164.765 166.559 164.974 171.614 168.65 172.304C171.867 172.907 174.113 169.67 172.486 166.776C171.974 165.866 171.494 165.559 169.684 164.985C169.536 164.938 168.941 165.069 168.361 165.275ZM99.8203 165.76C96.5323 167.975 98.7117 173.039 102.636 172.302C105.624 171.742 106.593 168.118 104.314 166.029C103.085 164.902 101.255 164.793 99.8203 165.76ZM114.509 166.037C112.634 167.912 112.806 170.376 114.911 171.807C117.234 173.386 120.567 171.602 120.567 168.779C120.567 165.598 116.699 163.847 114.509 166.037ZM38.0459 170.538C46.39 171.329 47.8876 174.4 47.886 190.714C47.8839 208.932 46.6781 210.092 27.741 210.09C8.59683 210.089 7.9119 209.329 8.1311 188.344C8.24254 177.658 8.2315 177.759 9.56139 174.919C10.6479 172.598 13.8144 170.84 17.4892 170.518C20.8166 170.226 34.9019 170.24 38.0459 170.538ZM108.053 172.793C105.159 174.077 104.98 178.196 107.761 179.516C110.313 180.727 113.033 179.046 113.03 176.261C113.028 173.718 110.281 171.804 108.053 172.793ZM20.9049 178.192C18.9006 178.631 17.5828 179.692 16.5473 181.704L15.7399 183.273L15.65 189.613C15.5412 197.328 15.7614 198.399 17.8961 200.534C19.3348 201.972 20.3887 202.237 25.4602 202.43C38.7381 202.937 40.0964 201.806 40.0964 190.245C40.0964 180.824 39.3321 179.178 34.4446 178.08C32.7158 177.692 22.8183 177.774 20.9049 178.192ZM62.7998 180.363C58.9163 182.065 60.7461 187.484 65.2041 187.484C67.3304 187.484 67.7903 187.944 68.0957 190.379C68.6087 194.464 69.1938 194.855 74.9717 194.975C80.0963 195.081 81.2286 194.857 82.2326 193.541C84.3436 190.774 82.6646 187.82 78.8242 187.545C76.2175 187.358 75.622 186.785 75.622 184.464C75.622 182.442 74.7862 180.941 73.3165 180.327C72.0644 179.804 64.0125 179.832 62.7998 180.363ZM63.0532 195.208C62.0786 195.397 60.8249 197.046 60.7844 198.192C60.428 208.357 61.1109 210.091 65.4696 210.091C67.5259 210.091 67.8397 210.417 68.0831 212.802C68.5667 217.55 67.9396 217.358 82.9784 217.358C96.7447 217.358 96.8115 217.35 97.5779 215.516C98.8168 212.55 97.2173 210.129 94.0029 210.102C90.9032 210.078 90.7402 209.717 90.6377 202.64L90.5589 197.208L89.7625 196.377C88.1393 194.683 85.7875 194.629 84.2169 196.248L83.2923 197.201L83.1519 202.906C82.9743 210.155 83.0415 210.026 79.4019 210.06C76.3164 210.089 75.622 209.513 75.622 206.926C75.622 204.048 74.1544 202.534 71.2533 202.421C70.4738 202.39 69.6269 202.347 69.3715 202.326C68.6766 202.267 68.1746 201.025 68.0169 198.971C67.7861 195.964 66.0278 194.631 63.0532 195.208ZM100.278 195.462C98.3138 196.526 98.247 196.755 98.2376 202.468L98.2291 207.628L98.9566 208.492C100.126 209.882 100.975 210.091 105.42 210.09C110.168 210.088 111.114 209.872 112.212 208.541C114.413 205.87 112.577 202.816 108.535 202.423C106.183 202.194 106.061 202.064 105.709 199.404C105.222 195.738 102.892 194.046 100.278 195.462ZM212.885 195.491C209.381 197.252 210.505 202.289 214.402 202.285C216.185 202.284 217.271 201.577 217.86 200.034C219.06 196.891 215.88 193.987 212.885 195.491ZM205.574 202.914C203.474 203.989 203.337 204.382 203.24 209.622C203.102 217.05 203.392 217.358 210.532 217.358C216.854 217.358 217.993 216.803 217.993 213.725C217.993 211.293 216.712 210.247 213.423 209.996C211.161 209.822 210.727 209.346 210.726 207.034C210.724 203.682 208.129 201.607 205.574 202.914ZM160.033 203.067C158.093 204.345 157.687 206.548 159.046 208.424C161.757 212.166 167.395 208.204 164.985 204.251C163.987 202.614 161.589 202.04 160.033 203.067ZM152.497 210.586C149.338 212.736 150.692 217.358 154.483 217.358C157.818 217.358 159.341 213.372 156.9 211.033C155.841 210.019 153.657 209.797 152.497 210.586ZM167.673 210.436C166.626 210.965 165.782 212.434 165.782 213.725C165.782 217.375 170.627 218.769 172.521 215.663C174.418 212.551 170.929 208.789 167.673 210.436ZM182.517 210.638C181.406 211.315 180.471 213.27 180.718 214.398C181.423 217.604 185.906 218.429 187.592 215.663C189.592 212.383 185.805 208.633 182.517 210.638ZM10.3509 250.346C4.64866 251.617 1.69661 257.092 3.52377 263.009C4.11092 264.908 6.91895 268.224 7.94081 268.224C8.16369 268.224 8.55635 268.337 8.81339 268.475C11.2556 269.788 16.5473 269.416 16.5473 267.931C16.5473 267.291 16.5184 267.283 14.2597 267.356C8.62626 267.539 5.14225 264.638 5.1207 259.746C5.08022 250.421 18.4417 248.899 19.7869 258.075C20.1885 260.816 18.6462 263.422 17.3741 262.149C17.0414 261.817 16.951 261.102 16.951 258.804C16.951 255.203 15.9533 253.815 14.6754 255.639C14.3206 256.146 14.1798 256.188 13.7855 255.908C10.8697 253.828 7.80046 255.788 7.80046 259.731C7.80046 263.533 11.2062 265.858 13.7009 263.759L14.5288 263.063L15.3567 263.759C19.3001 267.078 23.7671 260.284 21.1541 254.942C19.4137 251.385 14.6965 249.378 10.3509 250.346ZM27.7284 250.348C22.4162 252.652 23.3439 258.57 29.1855 259.645C32.7557 260.303 33.6372 260.814 33.6372 262.228C33.6372 264.53 29.8126 264.808 27.4183 262.681C25.6032 261.069 24.2029 261.236 24.227 263.063C24.2838 267.331 33.6246 268.482 36.318 264.551C38.4501 261.439 36.829 258.265 32.5607 257.192C28.5947 256.195 27.5923 255.628 27.762 254.48C28.0764 252.355 32.1612 252.258 33.5862 254.342C34.6891 255.956 36.3937 255.715 36.5446 253.924C36.7843 251.077 31.2361 248.826 27.7284 250.348ZM57.301 250.321C56.5593 250.725 55.764 252.379 54.3883 256.382C53.9562 257.641 53.1073 260.063 52.5023 261.765C51.2365 265.327 51.1766 265.884 51.9982 266.459C53.3354 267.396 54.5465 266.702 55.1552 264.651C55.6809 262.879 55.7545 262.841 58.6803 262.841C61.3963 262.841 62.1653 263.115 62.1653 264.082C62.1653 265.629 63.8185 267.159 65.0632 266.764C66.6786 266.251 66.4736 265.366 61.9892 253.493C60.7103 250.107 59.3662 249.198 57.301 250.321ZM69.4624 250.431C68.3549 251.538 68.3338 265.505 69.4382 266.4C71.062 267.714 72.0702 266.827 72.2021 263.966C72.2978 261.898 72.3682 261.665 73.1199 260.913L73.9336 260.1L75.0243 261.403C75.6241 262.12 76.7689 263.494 77.5685 264.456C79.2747 266.509 80.0758 267.035 81.1024 266.777C82.9212 266.321 82.4565 264.686 79.5086 261.173C76.4362 257.511 76.462 257.278 80.3302 253.691C81.6449 252.472 81.9508 251.584 81.34 250.761C80.1831 249.204 79.4813 249.667 74.1633 255.491C72.6442 257.154 72.0528 257.149 72.1501 255.472C72.4344 250.577 71.3495 248.544 69.4624 250.431ZM102.908 250.358C96.9045 252.488 96.1497 262.875 101.776 265.936C105.589 268.012 111.568 266.474 112.476 263.184C113.087 260.97 111.041 259.726 109.785 261.548C106.502 266.306 100.941 263.748 101.518 257.746C101.982 252.916 106.473 251.149 109.121 254.756C110.815 257.063 113.051 256.671 112.57 254.151C111.986 251.097 106.689 249.017 102.908 250.358ZM116.151 250.595C115.359 251.45 115.106 263.911 115.845 265.679L116.234 266.609H121.038C126.213 266.609 126.488 266.539 126.488 265.219C126.488 264.132 125.827 263.918 122.478 263.918C118.705 263.918 118.952 264.413 118.952 256.845C118.952 251.344 118.909 250.775 118.46 250.368C117.756 249.731 116.871 249.818 116.151 250.595ZM129.444 250.465C128.922 250.987 128.905 251.297 128.973 258.597L129.045 266.185L129.736 266.573C130.526 267.016 131.731 266.824 131.963 266.218C132.41 265.054 132.197 250.97 131.724 250.448C131.111 249.771 130.131 249.778 129.444 250.465ZM139.561 250.452C133.4 252.921 133.116 263.184 139.121 266.338C142.63 268.181 148.936 265.919 149.3 262.685C149.555 260.429 147.79 259.895 146.403 261.808C143.086 266.388 137.968 263.75 138.397 257.682C138.745 252.772 143.482 251.046 146.113 254.871C147.477 256.852 149.364 256.799 149.364 254.779C149.364 251.31 143.681 248.801 139.561 250.452ZM152.972 250.489C152.503 251.007 152.452 251.615 152.372 257.718C152.276 265.002 152.452 266.436 153.471 266.709C155.197 267.172 155.824 266.418 155.824 263.876C155.824 262.232 155.923 261.82 156.502 261.06C157.394 259.891 157.561 259.986 160.048 263.067C163.111 266.86 163.822 267.342 165.111 266.498C166.351 265.685 166.04 264.842 163.2 261.327C161.78 259.569 160.557 257.981 160.481 257.797C160.405 257.613 161.445 256.298 162.793 254.874C165.463 252.052 165.825 251.168 164.645 250.342C163.425 249.487 162.708 249.993 158.501 254.684C157.547 255.749 156.584 256.658 156.362 256.703C155.917 256.794 155.922 256.832 155.864 253.354C155.81 250.186 154.459 248.847 152.972 250.489ZM188.433 250.419C182.161 252.662 181.533 263.036 187.486 266.077C188.624 266.658 189.14 266.743 191.498 266.737L194.203 266.73L195.804 265.64C200.886 262.181 200.344 253.074 194.911 250.672C193.159 249.896 190.215 249.781 188.433 250.419ZM39.4909 250.483C39.1907 250.657 39.0199 251.084 39.0199 251.657C39.0199 252.761 39.3489 252.933 41.8458 253.135L43.7297 253.287L43.8643 259.639C44.0125 266.625 44.0735 266.878 45.6136 266.878C47.1538 266.878 47.2148 266.625 47.363 259.639L47.4976 253.287L49.2469 253.147C51.9582 252.931 53.1814 251.663 51.7364 250.567C51.1508 250.122 40.2383 250.048 39.4909 250.483ZM85.1604 250.574C84.4277 251.109 84.1953 264.888 84.9008 265.964C85.448 266.8 95.0605 267.001 95.3743 266.183C96.0698 264.372 95.3286 263.918 91.6753 263.918C87.908 263.918 88.0021 263.973 88.0021 261.765C88.0021 259.559 87.9122 259.612 91.638 259.612C94.5717 259.612 95.2687 259.356 95.2687 258.28C95.2687 257.323 94.4933 257.06 91.2585 256.92L88.1367 256.786V255.037V253.287L91.5008 253.148C93.3511 253.071 95.0164 252.912 95.2014 252.795C95.7502 252.448 95.6188 250.793 95.0174 250.471C94.1758 250.02 85.798 250.108 85.1604 250.574ZM169.03 250.711C168.343 251.398 168.163 264.501 168.822 265.802L169.163 266.475H173.775H178.386L179.547 265.658C182.244 263.761 182.189 260.516 179.424 258.508C178.45 257.8 178.427 257.749 178.948 257.47C181.364 256.177 181.349 252.678 178.92 251.069C177.35 250.029 169.979 249.763 169.03 250.711ZM200.836 250.47C200.374 250.656 200.231 250.931 200.231 251.635C200.231 252.752 200.514 252.901 203.056 253.123L204.94 253.287L205.075 259.701C205.221 266.653 205.277 266.886 206.809 266.874C208.348 266.863 208.574 265.859 208.574 259.024C208.574 252.817 208.48 253.101 210.564 253.017C212.491 252.94 212.523 252.932 212.995 252.46C213.562 251.894 213.528 251.379 212.88 250.73C212.291 250.141 202.198 249.922 200.836 250.47ZM176.494 253.332C178.642 254.684 177.047 256.987 174.046 256.865L172.106 256.786L172.027 254.854C171.949 252.923 171.95 252.921 172.7 252.806C173.855 252.627 175.804 252.898 176.494 253.332ZM193.53 253.49C197.339 256.014 196.003 263.812 191.729 263.99C187.822 264.153 185.758 259.879 187.535 255.306C188.384 253.119 191.532 252.166 193.53 253.49ZM59.8803 256.889C60.9211 260.097 60.8812 260.202 58.6419 260.097L56.9172 260.015L56.9766 259.208C57.046 258.268 58.1141 254.792 58.4879 254.29C58.8522 253.801 58.9173 253.922 59.8803 256.889ZM13.6126 257.756C13.9805 258.163 14.1251 258.724 14.1251 259.746C14.1251 262.138 12.3274 263.218 11.0495 261.594C9.31801 259.393 11.7702 255.72 13.6126 257.756ZM176.302 259.614C177.72 260.008 178.269 261.45 177.58 262.965C177.189 263.821 175.765 264.244 173.644 264.133L172.106 264.052L172.026 262.059C171.982 260.963 172.009 259.903 172.085 259.704C172.253 259.267 174.853 259.212 176.302 259.614Z" fill="white"/>
</svg>
