<svg width="30" height="30" viewBox="0 0 30 30" fill="none" xmlns="http://www.w3.org/2000/svg">
<g clip-path="url(#clip0_2002_506)">
<path d="M15.8965 27.3615H3.50391L5.40229 18.8947C5.50775 18.42 5.98242 18.1213 6.45703 18.2443L9.72656 17.9279L13.0665 17.5939C13.5586 17.506 14.0156 17.8049 14.1035 18.2794L15.8965 27.3615Z" fill="#57555C"/>
<path d="M15.8965 27.3615H9.72656V17.9279L13.0665 17.5939C13.5586 17.506 14.0156 17.8049 14.1035 18.2794L15.8965 27.3615Z" fill="#3C3A40"/>
<path d="M13.244 15.8212L8.21947 9.12207L0.477539 10.4516L5.49006 19.5204C5.65055 19.8105 5.95014 19.9745 6.25998 19.9745C6.4033 19.9745 6.54926 19.9392 6.68397 19.8646L13.068 17.051C13.4569 16.7601 13.5359 16.2091 13.244 15.8212Z" fill="#2B292C"/>
<path d="M22.9102 11.4241V14.9397C22.9102 15.4318 22.5235 15.8186 22.0312 15.8186C21.539 15.8186 21.1523 15.4318 21.1523 14.9397V11.4241C21.1523 10.9318 21.539 10.5452 22.0312 10.5452C22.5235 10.5452 22.9102 10.9318 22.9102 11.4241Z" fill="#8B8892"/>
<path d="M27.041 18.1916L24.4043 20.8283C24.2462 21.0041 24.0176 21.092 23.7891 21.092C23.5606 21.092 23.3321 21.0041 23.1739 20.8283C22.8224 20.4943 22.8224 19.9318 23.1739 19.5978L25.3008 17.4709L24.1934 15.8186H19.8693L18.7618 17.4709L20.8887 19.5978C21.2403 19.9318 21.2403 20.4943 20.8887 20.8283C20.5547 21.1799 19.9924 21.1799 19.6583 20.8283L17.0216 18.1916C16.7227 17.9104 16.67 17.4357 16.8986 17.0842L18.6564 14.4475C18.8321 14.2014 19.0958 14.0608 19.3946 14.0608H24.668C24.9668 14.0608 25.2305 14.2014 25.4063 14.4475L27.1641 17.0842C27.3926 17.4357 27.34 17.9104 27.041 18.1916Z" fill="#8B8892"/>
<path d="M17.0354 4.48548L16.9298 0.676304C16.7513 0.224839 16.2415 0.00253477 15.79 0.18189L2.28373 5.51714C1.83227 5.6948 1.61084 6.2055 1.78932 6.65697L4.05783 11.5253C4.21662 11.8188 4.51873 11.9854 4.83115 11.9854C4.97277 11.9854 5.11609 11.951 5.24916 11.879L16.6818 5.67681C17.1084 5.44507 17.2672 4.91205 17.0354 4.48548Z" fill="#57555C"/>
<path d="M27.041 18.1916L24.4042 20.8283C24.2461 21.0041 24.0176 21.092 23.7891 21.092C23.5605 21.092 23.332 21.0041 23.1739 20.8283C22.8223 20.4943 22.8223 19.9318 23.1739 19.5978L25.3008 17.4709L24.1934 15.8186H22.0312V14.0608H24.668C24.9667 14.0608 25.2305 14.2014 25.4062 14.4475L27.164 17.0842C27.3926 17.4357 27.3399 17.9104 27.041 18.1916Z" fill="#787780"/>
<path d="M22.9102 11.4241V14.9397C22.9102 15.4318 22.5235 15.8186 22.0312 15.8186V10.5452C22.5235 10.5452 22.9102 10.9318 22.9102 11.4241Z" fill="#787780"/>
<path d="M23.9647 9.31458L22.0312 10.7736L21.1523 11.424C20.994 11.5471 20.8007 11.5997 20.6249 11.5997C20.3612 11.5997 20.0976 11.4767 19.9218 11.2482L14.6483 4.21692C14.3495 3.83026 14.4374 3.28534 14.8242 2.98651L17.6366 0.877136C18.0233 0.578249 18.5683 0.666198 18.8671 1.05286L22.0311 5.27167L24.1405 8.08411C24.4394 8.47088 24.3515 9.01581 23.9647 9.31458Z" fill="#3C3A40"/>
<path d="M23.9648 9.31464L22.0312 10.7737V5.27173L24.1406 8.08417C24.4395 8.47095 24.3516 9.01587 23.9648 9.31464Z" fill="#2B292C"/>
<path d="M24.668 9.66626C24.668 11.1252 23.4903 12.303 22.0312 12.303C20.5722 12.303 19.3945 11.1252 19.3945 9.66626C19.3945 8.20722 20.5722 7.02954 22.0312 7.02954C23.4903 7.02954 24.668 8.20722 24.668 9.66626Z" fill="#FEDB41"/>
<path d="M24.668 9.66626C24.668 11.1252 23.4903 12.303 22.0312 12.303V7.02954C23.4903 7.02954 24.668 8.20722 24.668 9.66626Z" fill="#FCBF29"/>
<path d="M30 28.2405V29.1194C30 29.6115 29.6133 29.9983 29.1211 29.9983H0.878906C0.38666 29.9983 0 29.6115 0 29.1194V28.2405C0 27.2737 0.791016 26.4827 1.75781 26.4827H28.2422C29.209 26.4827 30 27.2737 30 28.2405Z" fill="#FEA832"/>
<path d="M3.57422 12.3029C2.27215 12.3029 1.08258 11.5888 0.470566 10.4395C0.201094 9.93486 0.0585938 9.36322 0.0585938 8.7873C0.0585938 7.33336 0.931465 6.05015 2.28334 5.51631C3.71068 4.95586 5.46082 5.44248 6.38777 6.67933C6.84691 7.29123 7.08984 8.02084 7.08984 8.7873C7.08984 10.0782 6.38432 11.2627 5.24877 11.8789C4.73807 12.1562 4.15875 12.3029 3.57422 12.3029Z" fill="#FEDB41"/>
<path d="M3.57422 7.02954C3.35104 7.02954 3.13389 7.07073 2.92963 7.15142C2.25328 7.41831 1.81641 8.06032 1.81641 8.78735C1.81641 9.08003 1.88596 9.35729 2.02154 9.61306C2.46785 10.4499 3.58623 10.7812 4.41105 10.3341C4.97924 10.0258 5.33203 9.43276 5.33203 8.78735C5.33203 8.40368 5.21104 8.03976 4.98182 7.73507C4.98182 7.73507 4.98182 7.73419 4.98094 7.73419C4.64625 7.28612 4.13297 7.02954 3.57422 7.02954Z" fill="#FCBF29"/>
<path d="M22.9102 9.66626C22.9102 10.1584 22.5235 10.5452 22.0312 10.5452C21.539 10.5452 21.1523 10.1584 21.1523 9.66626C21.1523 9.17401 21.539 8.78735 22.0312 8.78735C22.5235 8.78735 22.9102 9.17401 22.9102 9.66626Z" fill="#FEA832"/>
<path d="M18.859 1.04269C18.8513 1.03155 18.8341 1.00923 18.8178 0.989483C18.1089 0.100265 16.8601 -0.240458 15.7897 0.181827C14.2185 0.801808 13.5493 2.75954 14.6928 4.27337C14.7546 4.35317 14.8224 4.42788 14.8928 4.49825C15.7447 5.35319 17.0231 5.49177 18.0136 4.95318C18.8651 4.49222 19.3946 3.60388 19.3946 2.63485C19.3946 2.05888 19.2127 1.51214 18.859 1.04269Z" fill="#FEDB41"/>
<path d="M17.1742 3.40913C16.8437 3.58854 16.4584 3.58678 16.0541 3.1611C15.7143 2.71221 15.8838 2.03452 16.4326 1.81784C16.7833 1.67985 17.1994 1.76774 17.4617 2.10881C17.7788 2.52758 17.6558 3.14739 17.1742 3.40913Z" fill="#FCBF29"/>
<path d="M22.9102 9.66626C22.9102 10.1584 22.5235 10.5452 22.0312 10.5452V8.78735C22.5235 8.78735 22.9102 9.17401 22.9102 9.66626Z" fill="#FE9923"/>
<path d="M30 28.2405V29.1194C30 29.6115 29.6133 29.9983 29.1211 29.9983H9.72656V26.4827H28.2422C29.209 26.4827 30 27.2737 30 28.2405Z" fill="#FE9923"/>
<path d="M13.2422 15.8186C12.4161 14.7112 11.0977 14.0608 9.72656 14.0608C7.30078 14.0608 5.33203 16.0295 5.33203 18.4553C5.33203 19.176 5.50775 19.8967 5.84174 20.5119C6.61518 21.9533 8.0918 22.8499 9.72656 22.8499C12.1523 22.8499 14.1211 20.8811 14.1211 18.4553C14.1211 17.4885 13.8223 16.592 13.2422 15.8186Z" fill="#FEDB41"/>
<path d="M14.1211 18.4553C14.1211 20.8811 12.1523 22.8499 9.72656 22.8499V14.0608C11.0977 14.0608 12.4161 14.7112 13.2422 15.8186C13.8223 16.592 14.1211 17.4885 14.1211 18.4553Z" fill="#FCBF29"/>
<path d="M11.8359 16.8732C11.3261 16.2053 10.5703 15.8186 9.72656 15.8186C8.26752 15.8186 7.08984 16.9963 7.08984 18.4553C7.08984 18.8948 7.19531 19.3167 7.40625 19.6858C7.86328 20.5647 8.74219 21.092 9.72656 21.092C11.1856 21.092 12.3633 19.9142 12.3633 18.4553C12.3633 17.8752 12.1876 17.3303 11.8359 16.8732Z" fill="#FEA832"/>
<path d="M12.3633 18.4553C12.3633 19.9142 11.1856 21.092 9.72656 21.092V15.8186C10.5703 15.8186 11.3261 16.2053 11.8359 16.8732C12.1876 17.3303 12.3633 17.8752 12.3633 18.4553Z" fill="#FE9923"/>
<path d="M14.1211 18.4553C14.1211 18.9475 13.7344 19.3342 13.2422 19.3342H6.21094C5.71869 19.3342 5.33203 18.9475 5.33203 18.4553C5.33203 17.9631 5.71869 17.5764 6.21094 17.5764H13.2422C13.7344 17.5764 14.1211 17.9631 14.1211 18.4553Z" fill="#FEDB41"/>
<path d="M14.1211 18.4553C14.1211 18.9475 13.7344 19.3342 13.2422 19.3342H9.72656V17.5764H13.2422C13.7344 17.5764 14.1211 17.9631 14.1211 18.4553Z" fill="#FCBF29"/>
</g>
<defs>
<clipPath id="clip0_2002_506">
<rect width="30" height="30" fill="white"/>
</clipPath>
</defs>
</svg>
