<svg width="31" height="31" viewBox="0 0 31 31" fill="none" xmlns="http://www.w3.org/2000/svg">
<path d="M26.3984 26.3984H9.44531C8.11328 26.3984 7.02344 25.3086 7.02344 23.9766V7.02344C7.02344 5.69141 8.11328 4.60156 9.44531 4.60156H26.3984C27.7305 4.60156 28.8203 5.69141 28.8203 7.02344V23.9766C28.8203 25.3086 27.7305 26.3984 26.3984 26.3984Z" fill="#6E6E8E"/>
<path d="M21.5547 26.3984H4.60156C3.26953 26.3984 2.17969 25.3086 2.17969 23.9766V7.02344C2.17969 5.69141 3.26953 4.60156 4.60156 4.60156H21.5547C22.8867 4.60156 23.9766 5.69141 23.9766 7.02344V23.9766C23.9766 25.3086 22.8867 26.3984 21.5547 26.3984Z" fill="#D4D3DD"/>
<path d="M4.60156 23.4922V7.50781C4.60156 7.24141 4.81953 7.02344 5.08594 7.02344H21.0703C21.3367 7.02344 21.5547 7.24141 21.5547 7.50781V23.4922C21.5547 23.7586 21.3367 23.9766 21.0703 23.9766H5.08594C4.81953 23.9766 4.60156 23.7586 4.60156 23.4922Z" fill="#F2F2F4"/>
<path d="M21.5547 4.60156H26.3984C27.7305 4.60156 28.8203 5.69141 28.8203 7.02344" stroke="#444B54" stroke-width="1.45312" stroke-miterlimit="10" stroke-linecap="round" stroke-linejoin="round"/>
<path d="M28.8203 7.02344V23.9766C28.8203 25.3086 27.7305 26.3984 26.3984 26.3984V27.6094" stroke="#444B54" stroke-width="1.45312" stroke-miterlimit="10" stroke-linecap="round" stroke-linejoin="round"/>
<path d="M21.5547 26.3984V27.6094" stroke="#444B54" stroke-width="1.45312" stroke-miterlimit="10" stroke-linecap="round" stroke-linejoin="round"/>
<path d="M4.60156 26.3984V27.6094" stroke="#444B54" stroke-width="1.45312" stroke-miterlimit="10" stroke-linecap="round" stroke-linejoin="round"/>
<path d="M19.1328 11.1406C20.0691 11.1406 20.8281 10.3816 20.8281 9.44531C20.8281 8.50902 20.0691 7.75 19.1328 7.75C18.1965 7.75 17.4375 8.50902 17.4375 9.44531C17.4375 10.3816 18.1965 11.1406 19.1328 11.1406Z" fill="#8888AA"/>
<path d="M19.1328 10.1719C19.5341 10.1719 19.8594 9.84658 19.8594 9.44531C19.8594 9.04404 19.5341 8.71875 19.1328 8.71875C18.7315 8.71875 18.4062 9.04404 18.4062 9.44531C18.4062 9.84658 18.7315 10.1719 19.1328 10.1719Z" fill="#444B54"/>
<path d="M25.1875 9.44531H23.9766V7.02344C23.9766 5.69141 22.8867 4.60156 21.5547 4.60156H4.60156C3.26953 4.60156 2.17969 5.69141 2.17969 7.02344V23.9766C2.17969 25.3086 3.26953 26.3984 4.60156 26.3984H21.5547C22.8867 26.3984 23.9766 25.3086 23.9766 23.9766V21.5547H25.1875" stroke="#444B54" stroke-width="1.45312" stroke-miterlimit="10" stroke-linecap="round" stroke-linejoin="round"/>
<path d="M23.9766 12.1094V18.8906" stroke="#444B54" stroke-width="1.45312" stroke-miterlimit="10" stroke-linecap="round" stroke-linejoin="round"/>
<path d="M14.7908 17.2125C15.7366 16.2667 15.7366 14.7333 14.7908 13.7875C13.8451 12.8417 12.3116 12.8417 11.3658 13.7875C10.42 14.7333 10.42 16.2667 11.3658 17.2125C12.3116 18.1583 13.8451 18.1583 14.7908 17.2125Z" fill="#DBDBDB"/>
<path d="M14.7908 17.2125C15.7366 16.2667 15.7366 14.7333 14.7908 13.7875C13.8451 12.8417 12.3116 12.8417 11.3658 13.7875C10.42 14.7333 10.42 16.2667 11.3658 17.2125C12.3116 18.1583 13.8451 18.1583 14.7908 17.2125Z" stroke="#444B54" stroke-width="1.45312" stroke-miterlimit="10" stroke-linecap="round" stroke-linejoin="round"/>
<path d="M11.3594 13.7805L9.66406 12.0852" stroke="#444B54" stroke-width="1.45312" stroke-miterlimit="10" stroke-linecap="round" stroke-linejoin="round"/>
<path d="M14.7979 13.7805L16.4932 12.0852" stroke="#444B54" stroke-width="1.45312" stroke-miterlimit="10" stroke-linecap="round" stroke-linejoin="round"/>
<path d="M14.7979 17.2195L16.4932 18.9148" stroke="#444B54" stroke-width="1.45312" stroke-miterlimit="10" stroke-linecap="round" stroke-linejoin="round"/>
<path d="M11.3594 17.2195L9.66406 18.9148" stroke="#444B54" stroke-width="1.45312" stroke-miterlimit="10" stroke-linecap="round" stroke-linejoin="round"/>
</svg>
