<svg width="316" height="43" viewBox="0 0 316 43" fill="none" xmlns="http://www.w3.org/2000/svg">
<g filter="url(#filter0_f_109_303)">
<path d="M13.5489 2.92705C13.8483 2.00574 15.1517 2.00574 15.4511 2.92705L17.5309 9.32827C17.6648 9.74029 18.0488 10.0193 18.482 10.0193L25.2126 10.0193C26.1814 10.0193 26.5841 11.2589 25.8004 11.8283L20.3552 15.7844C20.0047 16.0391 19.8581 16.4905 19.9919 16.9025L22.0718 23.3037C22.3712 24.225 21.3167 24.9911 20.533 24.4217L15.0878 20.4656C14.7373 20.2109 14.2627 20.2109 13.9122 20.4656L8.46701 24.4217C7.6833 24.9911 6.62882 24.225 6.92817 23.3037L9.00805 16.9025C9.14193 16.4905 8.99527 16.0391 8.64478 15.7844L3.19958 11.8283C2.41586 11.2589 2.81864 10.0193 3.78736 10.0193L10.518 10.0193C10.9512 10.0193 11.3352 9.74029 11.4691 9.32827L13.5489 2.92705Z" fill="#41FDB9"/>
</g>
<g filter="url(#filter1_f_109_303)">
<path d="M71.5489 2.92705C71.8483 2.00574 73.1517 2.00574 73.4511 2.92705L75.5309 9.32827C75.6648 9.74029 76.0488 10.0193 76.482 10.0193L83.2126 10.0193C84.1814 10.0193 84.5841 11.2589 83.8004 11.8283L78.3552 15.7844C78.0047 16.0391 77.8581 16.4905 77.9919 16.9025L80.0718 23.3037C80.3712 24.225 79.3167 24.9911 78.533 24.4217L73.0878 20.4656C72.7373 20.2109 72.2627 20.2109 71.9122 20.4656L66.467 24.4217C65.6833 24.9911 64.6288 24.225 64.9282 23.3037L67.0081 16.9025C67.1419 16.4905 66.9953 16.0391 66.6448 15.7844L61.1996 11.8283C60.4159 11.2589 60.8186 10.0193 61.7874 10.0193L68.518 10.0193C68.9512 10.0193 69.3352 9.74029 69.4691 9.32827L71.5489 2.92705Z" fill="#41FDB9"/>
</g>
<g filter="url(#filter2_f_109_303)">
<path d="M100.549 16.9271C100.848 16.0057 102.152 16.0057 102.451 16.9271L104.531 23.3283C104.665 23.7403 105.049 24.0193 105.482 24.0193L112.213 24.0193C113.181 24.0193 113.584 25.2589 112.8 25.8283L107.355 29.7844C107.005 30.0391 106.858 30.4905 106.992 30.9025L109.072 37.3037C109.371 38.225 108.317 38.9911 107.533 38.4217L102.088 34.4656C101.737 34.2109 101.263 34.2109 100.912 34.4656L95.467 38.4217C94.6833 38.9911 93.6288 38.225 93.9282 37.3037L96.0081 30.9025C96.1419 30.4905 95.9953 30.0391 95.6448 29.7844L90.1996 25.8283C89.4159 25.2589 89.8186 24.0193 90.7874 24.0193L97.518 24.0193C97.9512 24.0193 98.3352 23.7403 98.4691 23.3283L100.549 16.9271Z" fill="#41FDB9"/>
</g>
<g filter="url(#filter3_f_109_303)">
<path d="M42.5489 16.9271C42.8483 16.0057 44.1517 16.0057 44.4511 16.9271L46.5309 23.3283C46.6648 23.7403 47.0488 24.0193 47.482 24.0193L54.2126 24.0193C55.1814 24.0193 55.5841 25.2589 54.8004 25.8283L49.3552 29.7844C49.0047 30.0391 48.8581 30.4905 48.9919 30.9025L51.0718 37.3037C51.3712 38.225 50.3167 38.9911 49.533 38.4217L44.0878 34.4656C43.7373 34.2109 43.2627 34.2109 42.9122 34.4656L37.467 38.4217C36.6833 38.9911 35.6288 38.225 35.9282 37.3037L38.0081 30.9025C38.1419 30.4905 37.9953 30.0391 37.6448 29.7844L32.1996 25.8283C31.4159 25.2589 31.8186 24.0193 32.7874 24.0193L39.518 24.0193C39.9512 24.0193 40.3352 23.7403 40.4691 23.3283L42.5489 16.9271Z" fill="#41FDB9"/>
</g>
<g filter="url(#filter4_f_109_303)">
<path d="M129.549 2.92705C129.848 2.00574 131.152 2.00574 131.451 2.92705L133.531 9.32827C133.665 9.74029 134.049 10.0193 134.482 10.0193L141.213 10.0193C142.181 10.0193 142.584 11.2589 141.8 11.8283L136.355 15.7844C136.005 16.0391 135.858 16.4905 135.992 16.9025L138.072 23.3037C138.371 24.225 137.317 24.9911 136.533 24.4217L131.088 20.4656C130.737 20.2109 130.263 20.2109 129.912 20.4656L124.467 24.4217C123.683 24.9911 122.629 24.225 122.928 23.3037L125.008 16.9025C125.142 16.4905 124.995 16.0391 124.645 15.7844L119.2 11.8283C118.416 11.2589 118.819 10.0193 119.787 10.0193L126.518 10.0193C126.951 10.0193 127.335 9.74029 127.469 9.32827L129.549 2.92705Z" fill="#41FDB9"/>
</g>
<g filter="url(#filter5_f_109_303)">
<path d="M187.549 2.92705C187.848 2.00574 189.152 2.00574 189.451 2.92705L191.531 9.32827C191.665 9.74029 192.049 10.0193 192.482 10.0193L199.213 10.0193C200.181 10.0193 200.584 11.2589 199.8 11.8283L194.355 15.7844C194.005 16.0391 193.858 16.4905 193.992 16.9025L196.072 23.3037C196.371 24.225 195.317 24.9911 194.533 24.4217L189.088 20.4656C188.737 20.2109 188.263 20.2109 187.912 20.4656L182.467 24.4217C181.683 24.9911 180.629 24.225 180.928 23.3037L183.008 16.9025C183.142 16.4905 182.995 16.0391 182.645 15.7844L177.2 11.8283C176.416 11.2589 176.819 10.0193 177.787 10.0193L184.518 10.0193C184.951 10.0193 185.335 9.74029 185.469 9.32827L187.549 2.92705Z" fill="#41FDB9"/>
</g>
<g filter="url(#filter6_f_109_303)">
<path d="M216.549 16.9271C216.848 16.0057 218.152 16.0057 218.451 16.9271L220.531 23.3283C220.665 23.7403 221.049 24.0193 221.482 24.0193L228.213 24.0193C229.181 24.0193 229.584 25.2589 228.8 25.8283L223.355 29.7844C223.005 30.0391 222.858 30.4905 222.992 30.9025L225.072 37.3037C225.371 38.225 224.317 38.9911 223.533 38.4217L218.088 34.4656C217.737 34.2109 217.263 34.2109 216.912 34.4656L211.467 38.4217C210.683 38.9911 209.629 38.225 209.928 37.3037L212.008 30.9025C212.142 30.4905 211.995 30.0391 211.645 29.7844L206.2 25.8283C205.416 25.2589 205.819 24.0193 206.787 24.0193L213.518 24.0193C213.951 24.0193 214.335 23.7403 214.469 23.3283L216.549 16.9271Z" fill="#41FDB9"/>
</g>
<g filter="url(#filter7_f_109_303)">
<path d="M158.549 16.9271C158.848 16.0057 160.152 16.0057 160.451 16.9271L162.531 23.3283C162.665 23.7403 163.049 24.0193 163.482 24.0193L170.213 24.0193C171.181 24.0193 171.584 25.2589 170.8 25.8283L165.355 29.7844C165.005 30.0391 164.858 30.4905 164.992 30.9025L167.072 37.3037C167.371 38.225 166.317 38.9911 165.533 38.4217L160.088 34.4656C159.737 34.2109 159.263 34.2109 158.912 34.4656L153.467 38.4217C152.683 38.9911 151.629 38.225 151.928 37.3037L154.008 30.9025C154.142 30.4905 153.995 30.0391 153.645 29.7844L148.2 25.8283C147.416 25.2589 147.819 24.0193 148.787 24.0193L155.518 24.0193C155.951 24.0193 156.335 23.7403 156.469 23.3283L158.549 16.9271Z" fill="#41FDB9"/>
</g>
<g filter="url(#filter8_f_109_303)">
<path d="M245.549 2.92705C245.848 2.00574 247.152 2.00574 247.451 2.92705L249.531 9.32827C249.665 9.74029 250.049 10.0193 250.482 10.0193L257.213 10.0193C258.181 10.0193 258.584 11.2589 257.8 11.8283L252.355 15.7844C252.005 16.0391 251.858 16.4905 251.992 16.9025L254.072 23.3037C254.371 24.225 253.317 24.9911 252.533 24.4217L247.088 20.4656C246.737 20.2109 246.263 20.2109 245.912 20.4656L240.467 24.4217C239.683 24.9911 238.629 24.225 238.928 23.3037L241.008 16.9025C241.142 16.4905 240.995 16.0391 240.645 15.7844L235.2 11.8283C234.416 11.2589 234.819 10.0193 235.787 10.0193L242.518 10.0193C242.951 10.0193 243.335 9.74029 243.469 9.32827L245.549 2.92705Z" fill="#41FDB9"/>
</g>
<g filter="url(#filter9_f_109_303)">
<path d="M303.549 2.92705C303.848 2.00574 305.152 2.00574 305.451 2.92705L307.531 9.32827C307.665 9.74029 308.049 10.0193 308.482 10.0193L315.213 10.0193C316.181 10.0193 316.584 11.2589 315.8 11.8283L310.355 15.7844C310.005 16.0391 309.858 16.4905 309.992 16.9025L312.072 23.3037C312.371 24.225 311.317 24.9911 310.533 24.4217L305.088 20.4656C304.737 20.2109 304.263 20.2109 303.912 20.4656L298.467 24.4217C297.683 24.9911 296.629 24.225 296.928 23.3037L299.008 16.9025C299.142 16.4905 298.995 16.0391 298.645 15.7844L293.2 11.8283C292.416 11.2589 292.819 10.0193 293.787 10.0193L300.518 10.0193C300.951 10.0193 301.335 9.74029 301.469 9.32827L303.549 2.92705Z" fill="#41FDB9"/>
</g>
<g filter="url(#filter10_f_109_303)">
<path d="M274.549 16.9271C274.848 16.0057 276.152 16.0057 276.451 16.9271L278.531 23.3283C278.665 23.7403 279.049 24.0193 279.482 24.0193L286.213 24.0193C287.181 24.0193 287.584 25.2589 286.8 25.8283L281.355 29.7844C281.005 30.0391 280.858 30.4905 280.992 30.9025L283.072 37.3037C283.371 38.225 282.317 38.9911 281.533 38.4217L276.088 34.4656C275.737 34.2109 275.263 34.2109 274.912 34.4656L269.467 38.4217C268.683 38.9911 267.629 38.225 267.928 37.3037L270.008 30.9025C270.142 30.4905 269.995 30.0391 269.645 29.7844L264.2 25.8283C263.416 25.2589 263.819 24.0193 264.787 24.0193L271.518 24.0193C271.951 24.0193 272.335 23.7403 272.469 23.3283L274.549 16.9271Z" fill="#41FDB9"/>
</g>
<defs>
<filter id="filter0_f_109_303" x="1.78516" y="1.23607" width="25.4297" height="24.3812" filterUnits="userSpaceOnUse" color-interpolation-filters="sRGB">
<feFlood flood-opacity="0" result="BackgroundImageFix"/>
<feBlend mode="normal" in="SourceGraphic" in2="BackgroundImageFix" result="shape"/>
<feGaussianBlur stdDeviation="0.5" result="effect1_foregroundBlur_109_303"/>
</filter>
<filter id="filter1_f_109_303" x="59.7852" y="1.23607" width="25.4297" height="24.3812" filterUnits="userSpaceOnUse" color-interpolation-filters="sRGB">
<feFlood flood-opacity="0" result="BackgroundImageFix"/>
<feBlend mode="normal" in="SourceGraphic" in2="BackgroundImageFix" result="shape"/>
<feGaussianBlur stdDeviation="0.5" result="effect1_foregroundBlur_109_303"/>
</filter>
<filter id="filter2_f_109_303" x="88.7852" y="15.2361" width="25.4297" height="24.3812" filterUnits="userSpaceOnUse" color-interpolation-filters="sRGB">
<feFlood flood-opacity="0" result="BackgroundImageFix"/>
<feBlend mode="normal" in="SourceGraphic" in2="BackgroundImageFix" result="shape"/>
<feGaussianBlur stdDeviation="0.5" result="effect1_foregroundBlur_109_303"/>
</filter>
<filter id="filter3_f_109_303" x="30.7852" y="15.2361" width="25.4297" height="24.3812" filterUnits="userSpaceOnUse" color-interpolation-filters="sRGB">
<feFlood flood-opacity="0" result="BackgroundImageFix"/>
<feBlend mode="normal" in="SourceGraphic" in2="BackgroundImageFix" result="shape"/>
<feGaussianBlur stdDeviation="0.5" result="effect1_foregroundBlur_109_303"/>
</filter>
<filter id="filter4_f_109_303" x="117.785" y="1.23607" width="25.4297" height="24.3812" filterUnits="userSpaceOnUse" color-interpolation-filters="sRGB">
<feFlood flood-opacity="0" result="BackgroundImageFix"/>
<feBlend mode="normal" in="SourceGraphic" in2="BackgroundImageFix" result="shape"/>
<feGaussianBlur stdDeviation="0.5" result="effect1_foregroundBlur_109_303"/>
</filter>
<filter id="filter5_f_109_303" x="175.785" y="1.23607" width="25.4297" height="24.3812" filterUnits="userSpaceOnUse" color-interpolation-filters="sRGB">
<feFlood flood-opacity="0" result="BackgroundImageFix"/>
<feBlend mode="normal" in="SourceGraphic" in2="BackgroundImageFix" result="shape"/>
<feGaussianBlur stdDeviation="0.5" result="effect1_foregroundBlur_109_303"/>
</filter>
<filter id="filter6_f_109_303" x="204.785" y="15.2361" width="25.4297" height="24.3812" filterUnits="userSpaceOnUse" color-interpolation-filters="sRGB">
<feFlood flood-opacity="0" result="BackgroundImageFix"/>
<feBlend mode="normal" in="SourceGraphic" in2="BackgroundImageFix" result="shape"/>
<feGaussianBlur stdDeviation="0.5" result="effect1_foregroundBlur_109_303"/>
</filter>
<filter id="filter7_f_109_303" x="146.785" y="15.2361" width="25.4297" height="24.3812" filterUnits="userSpaceOnUse" color-interpolation-filters="sRGB">
<feFlood flood-opacity="0" result="BackgroundImageFix"/>
<feBlend mode="normal" in="SourceGraphic" in2="BackgroundImageFix" result="shape"/>
<feGaussianBlur stdDeviation="0.5" result="effect1_foregroundBlur_109_303"/>
</filter>
<filter id="filter8_f_109_303" x="233.785" y="1.23607" width="25.4297" height="24.3812" filterUnits="userSpaceOnUse" color-interpolation-filters="sRGB">
<feFlood flood-opacity="0" result="BackgroundImageFix"/>
<feBlend mode="normal" in="SourceGraphic" in2="BackgroundImageFix" result="shape"/>
<feGaussianBlur stdDeviation="0.5" result="effect1_foregroundBlur_109_303"/>
</filter>
<filter id="filter9_f_109_303" x="291.785" y="1.23607" width="25.4297" height="24.3812" filterUnits="userSpaceOnUse" color-interpolation-filters="sRGB">
<feFlood flood-opacity="0" result="BackgroundImageFix"/>
<feBlend mode="normal" in="SourceGraphic" in2="BackgroundImageFix" result="shape"/>
<feGaussianBlur stdDeviation="0.5" result="effect1_foregroundBlur_109_303"/>
</filter>
<filter id="filter10_f_109_303" x="262.785" y="15.2361" width="25.4297" height="24.3812" filterUnits="userSpaceOnUse" color-interpolation-filters="sRGB">
<feFlood flood-opacity="0" result="BackgroundImageFix"/>
<feBlend mode="normal" in="SourceGraphic" in2="BackgroundImageFix" result="shape"/>
<feGaussianBlur stdDeviation="0.5" result="effect1_foregroundBlur_109_303"/>
</filter>
</defs>
</svg>
