<svg width="73" height="74" viewBox="0 0 73 74" fill="none" xmlns="http://www.w3.org/2000/svg">
<g clip-path="url(#clip0_28_143)">
<path d="M11.2615 18.3806L17.8996 11.7425C18.5749 11.0671 18.5749 9.97218 17.8996 9.29684L16.6768 8.07405C16.0015 7.39871 14.9065 7.39871 14.2312 8.07405L7.59308 14.7121C6.91774 15.3875 6.91774 16.4824 7.59308 17.1578L8.81588 18.3806C9.49121 19.0559 10.5862 19.0559 11.2615 18.3806Z" fill="#41FDB9"/>
<path d="M58.7762 65.8953L65.4143 59.2572C66.0896 58.5819 66.0896 57.487 65.4143 56.8116L64.1915 55.5888C63.5161 54.9135 62.4212 54.9135 61.7459 55.5888L55.1078 62.2269C54.4324 62.9023 54.4324 63.9972 55.1077 64.6725L56.3305 65.8953C57.0059 66.5707 58.1008 66.5707 58.7762 65.8953Z" fill="#41FDB9"/>
<path d="M65.4145 14.5373L58.7764 7.8992C58.1011 7.22386 57.0061 7.22386 56.3308 7.8992L55.108 9.122C54.4327 9.79734 54.4327 10.8923 55.108 11.5676L61.7461 18.2057C62.4215 18.8811 63.5164 18.8811 64.1917 18.2057L65.4145 16.9829C66.0899 16.3076 66.0899 15.2126 65.4145 14.5373Z" fill="#41FDB9"/>
<path d="M17.7248 62.2269L11.0867 55.5888C10.4114 54.9134 9.31645 54.9134 8.64111 55.5888L7.41831 56.8116C6.74298 57.4869 6.74298 58.5819 7.41831 59.2572L14.0564 65.8953C14.7318 66.5706 15.8267 66.5706 16.502 65.8953L17.7248 64.6725C18.4002 63.9972 18.4002 62.9022 17.7248 62.2269Z" fill="#41FDB9"/>
<path d="M41.0739 68.1122H31.6862C30.7311 68.1122 29.9569 68.8864 29.9569 69.8415V71.5708C29.9569 72.5259 30.7311 73.3001 31.6862 73.3001H41.0739C42.029 73.3001 42.8032 72.5259 42.8032 71.5708V69.8415C42.8032 68.8864 42.029 68.1122 41.0739 68.1122Z" fill="#41FDB9"/>
<path d="M72.6956 41.6784V32.2907C72.6956 31.3356 71.9213 30.5614 70.9663 30.5614H69.237C68.2819 30.5614 67.5077 31.3356 67.5077 32.2907V41.6784C67.5077 42.6335 68.2819 43.4077 69.237 43.4077H70.9663C71.9213 43.4077 72.6956 42.6335 72.6956 41.6784Z" fill="#41FDB9"/>
<path d="M5.49945 41.6784L5.49945 32.2907C5.49945 31.3356 4.72521 30.5614 3.77014 30.5614H2.04084C1.08577 30.5614 0.311525 31.3356 0.311525 32.2907L0.311525 41.6784C0.311525 42.6335 1.08577 43.4077 2.04084 43.4077H3.77014C4.72521 43.4077 5.49945 42.6335 5.49945 41.6784Z" fill="#41FDB9"/>
<path d="M41.0739 0.916138H31.6862C30.7311 0.916138 29.9569 1.69038 29.9569 2.64545V4.37475C29.9569 5.32982 30.7311 6.10406 31.6862 6.10406H41.0739C42.029 6.10406 42.8032 5.32982 42.8032 4.37475V2.64545C42.8032 1.69038 42.029 0.916138 41.0739 0.916138Z" fill="#41FDB9"/>
</g>
<defs>
<clipPath id="clip0_28_143">
<rect width="72.3841" height="72.3841" fill="white" transform="translate(0.311523 0.916138)"/>
</clipPath>
</defs>
</svg>
