<svg width="428" height="80" viewBox="0 0 428 80" fill="none" xmlns="http://www.w3.org/2000/svg">
<path d="M135 40.5C150.332 40.5 163.673 31.9804 170.549 19.4195C173.182 14.6091 176.609 9.86842 180.728 6.33589C184.844 2.80555 189.629 0.5 195 0.5H403C416.531 0.5 427.5 11.469 427.5 25V70C427.5 75.2467 423.247 79.5 418 79.5H10C4.75329 79.5 0.5 75.2467 0.5 70V25C0.5 11.469 11.469 0.5 25 0.5H75C80.3707 0.5 85.156 2.80555 89.2724 6.33589C93.3913 9.86841 96.8175 14.6091 99.4509 19.4195C106.327 31.9804 119.668 40.5 135 40.5Z" fill="#151D30" stroke="#151D30"/>
</svg>
